<svg width="175" height="232" viewBox="0 0 175 232" fill="none" xmlns="http://www.w3.org/2000/svg">
<path d="M7.29167 119.625C-16.3617 184.875 41.9761 224.75 69.2708 232C-16.268 148.625 92.9958 130.5 105.729 72.5C111.839 44.6693 104.505 12.6875 98.4375 0C76.6044 79.75 26.3458 67.0625 7.29167 119.625Z" fill="url(#paint0_linear_124_185)" fill-opacity="0.2"/>
<path d="M58.3333 159.5C50.5126 175.563 45.637 208.438 87.5 232C51.0974 168.562 128.594 168.562 138.542 123.25C144.652 95.4193 140.963 74.3125 134.896 61.625C107.586 139.562 76.5346 122.117 58.3333 159.5Z" fill="url(#paint1_linear_124_185)" fill-opacity="0.2"/>
<path d="M29.1667 50.75C29.1667 52.752 27.5313 54.375 25.5208 54.375C23.5104 54.375 21.875 52.752 21.875 50.75C21.875 48.748 23.5104 47.125 25.5208 47.125C27.5313 47.125 29.1667 48.748 29.1667 50.75Z" fill="url(#paint2_linear_124_185)" fill-opacity="0.2"/>
<path d="M29.1667 65.25C29.1667 67.252 27.5313 68.875 25.5208 68.875C23.5104 68.875 21.875 67.252 21.875 65.25C21.875 63.248 23.5104 61.625 25.5208 61.625C27.5313 61.625 29.1667 63.248 29.1667 65.25Z" fill="url(#paint3_linear_124_185)" fill-opacity="0.2"/>
<path d="M29.1667 79.75C29.1667 81.752 27.5313 83.375 25.5208 83.375C23.5104 83.375 21.875 81.752 21.875 79.75C21.875 77.748 23.5104 76.125 25.5208 76.125C27.5313 76.125 29.1667 77.748 29.1667 79.75Z" fill="url(#paint4_linear_124_185)" fill-opacity="0.2"/>
<path d="M29.1667 112.375C29.1667 114.377 27.5313 116 25.5208 116C23.5104 116 21.875 114.377 21.875 112.375C21.875 110.373 23.5104 108.75 25.5208 108.75C27.5313 108.75 29.1667 110.373 29.1667 112.375Z" fill="url(#paint5_linear_124_185)" fill-opacity="0.2"/>
<path d="M94.7917 203L113.021 192.125V232H94.7917V203Z" fill="url(#paint6_linear_124_185)" fill-opacity="0.2"/>
<path d="M123.958 188.5L142.188 177.625V232H123.958V188.5Z" fill="url(#paint7_linear_124_185)" fill-opacity="0.2"/>
<path d="M153.125 126.875L171.354 116V232H153.125V126.875Z" fill="url(#paint8_linear_124_185)" fill-opacity="0.2"/>
<path d="M0 195.75V192.125C87.4074 159.333 101.987 154.019 175 72.5V76.125C114.759 144.959 89.2204 164.759 0 195.75Z" fill="url(#paint9_linear_124_185)" fill-opacity="0.2"/>
<defs>
<linearGradient id="paint0_linear_124_185" x1="253.92" y1="104.683" x2="-47.8129" y2="104.683" gradientUnits="userSpaceOnUse">
<stop stop-color="#FFAA11"/>
<stop offset="1" stop-color="#EB491D"/>
</linearGradient>
<linearGradient id="paint1_linear_124_185" x1="253.92" y1="104.683" x2="-47.8129" y2="104.683" gradientUnits="userSpaceOnUse">
<stop stop-color="#FFAA11"/>
<stop offset="1" stop-color="#EB491D"/>
</linearGradient>
<linearGradient id="paint2_linear_124_185" x1="253.92" y1="104.683" x2="-47.8129" y2="104.683" gradientUnits="userSpaceOnUse">
<stop stop-color="#FFAA11"/>
<stop offset="1" stop-color="#EB491D"/>
</linearGradient>
<linearGradient id="paint3_linear_124_185" x1="253.92" y1="104.683" x2="-47.8129" y2="104.683" gradientUnits="userSpaceOnUse">
<stop stop-color="#FFAA11"/>
<stop offset="1" stop-color="#EB491D"/>
</linearGradient>
<linearGradient id="paint4_linear_124_185" x1="253.92" y1="104.683" x2="-47.8129" y2="104.683" gradientUnits="userSpaceOnUse">
<stop stop-color="#FFAA11"/>
<stop offset="1" stop-color="#EB491D"/>
</linearGradient>
<linearGradient id="paint5_linear_124_185" x1="253.92" y1="104.683" x2="-47.8129" y2="104.683" gradientUnits="userSpaceOnUse">
<stop stop-color="#FFAA11"/>
<stop offset="1" stop-color="#EB491D"/>
</linearGradient>
<linearGradient id="paint6_linear_124_185" x1="253.92" y1="104.683" x2="-47.8129" y2="104.683" gradientUnits="userSpaceOnUse">
<stop stop-color="#FFAA11"/>
<stop offset="1" stop-color="#EB491D"/>
</linearGradient>
<linearGradient id="paint7_linear_124_185" x1="253.92" y1="104.683" x2="-47.8129" y2="104.683" gradientUnits="userSpaceOnUse">
<stop stop-color="#FFAA11"/>
<stop offset="1" stop-color="#EB491D"/>
</linearGradient>
<linearGradient id="paint8_linear_124_185" x1="253.92" y1="104.683" x2="-47.8129" y2="104.683" gradientUnits="userSpaceOnUse">
<stop stop-color="#FFAA11"/>
<stop offset="1" stop-color="#EB491D"/>
</linearGradient>
<linearGradient id="paint9_linear_124_185" x1="175.058" y1="72.5" x2="-2.78889" y2="203.713" gradientUnits="userSpaceOnUse">
<stop stop-color="#EB491D"/>
<stop offset="1" stop-color="#FFAA11"/>
</linearGradient>
</defs>
</svg>
