<svg width="309" height="69" viewBox="0 0 309 69" fill="none" xmlns="http://www.w3.org/2000/svg">
<path d="M2 35.5C-4.48779 53.5 11.5135 64.5 19 66.5C-4.46207 43.5 25.5074 38.5 29 22.5C30.6759 14.8226 28.6641 6 27 2.5C21.0115 24.5 7.22627 21 2 35.5Z" fill="url(#paint0_linear_147_47)"/>
<path d="M16 46.5C13.8549 50.9311 12.5176 60 24 66.5C14.0153 49 35.2714 49 38 36.5C39.6759 28.8226 38.6641 23 37 19.5C29.5094 41 20.9924 36.1875 16 46.5Z" fill="url(#paint1_linear_147_47)"/>
<path d="M8 16.5C8 17.0523 7.55144 17.5 7 17.5C6.44856 17.5 6 17.0523 6 16.5C6 15.9477 6.44856 15.5 7 15.5C7.55144 15.5 8 15.9477 8 16.5Z" fill="url(#paint2_linear_147_47)"/>
<path d="M8 20.5C8 21.0523 7.55144 21.5 7 21.5C6.44856 21.5 6 21.0523 6 20.5C6 19.9477 6.44856 19.5 7 19.5C7.55144 19.5 8 19.9477 8 20.5Z" fill="url(#paint3_linear_147_47)"/>
<path d="M8 24.5C8 25.0523 7.55144 25.5 7 25.5C6.44856 25.5 6 25.0523 6 24.5C6 23.9477 6.44856 23.5 7 23.5C7.55144 23.5 8 23.9477 8 24.5Z" fill="url(#paint4_linear_147_47)"/>
<path d="M8 33.5C8 34.0523 7.55144 34.5 7 34.5C6.44856 34.5 6 34.0523 6 33.5C6 32.9477 6.44856 32.5 7 32.5C7.55144 32.5 8 32.9477 8 33.5Z" fill="url(#paint5_linear_147_47)"/>
<path d="M26 58.5L31 55.5V66.5H26V58.5Z" fill="url(#paint6_linear_147_47)"/>
<path d="M34 54.5L39 51.5V66.5H34V54.5Z" fill="url(#paint7_linear_147_47)"/>
<path d="M42 37.5L47 34.5V66.5H42V37.5Z" fill="url(#paint8_linear_147_47)"/>
<path d="M0 56.5V55.5C23.9746 46.4539 27.9735 44.9881 48 22.5V23.5C31.4768 42.4887 24.4719 47.9506 0 56.5Z" fill="url(#paint9_linear_147_47)"/>
<g clip-path="url(#clip0_147_47)">
<path d="M75.2422 46.5V12.125H81.2188C82.599 12.125 83.6927 12.3724 84.5 12.8672C85.3073 13.349 85.8997 14.0391 86.2773 14.9375C86.668 15.8229 86.9154 16.8776 87.0195 18.1016C87.1367 19.3125 87.1953 20.6471 87.1953 22.1055V22.457C87.1953 24.8529 87.026 26.832 86.6875 28.3945C86.362 29.957 85.7565 31.1224 84.8711 31.8906C83.9857 32.6589 82.7096 33.043 81.043 33.043H78.1523V46.5H75.2422ZM78.1523 30.582H81.2383C82.0456 30.582 82.6641 30.3346 83.0938 29.8398C83.5365 29.3451 83.8424 28.5117 84.0117 27.3398C84.181 26.1549 84.2656 24.5404 84.2656 22.4961V21.832C84.2786 19.319 84.1029 17.4766 83.7383 16.3047C83.3737 15.1328 82.5859 14.5469 81.375 14.5469H78.1523V30.582ZM91.6047 46.5V12.125H97.4445C99.2935 12.125 100.648 12.418 101.507 13.0039C102.366 13.5898 102.92 14.5078 103.167 15.7578C103.428 17.0078 103.558 18.6224 103.558 20.6016C103.558 22.8021 103.33 24.5729 102.874 25.9141C102.418 27.2552 101.592 28.0951 100.394 28.4336C101.058 28.5378 101.598 28.8307 102.015 29.3125C102.432 29.7812 102.744 30.556 102.952 31.6367C103.174 32.7044 103.323 34.1823 103.402 36.0703C103.493 37.9583 103.538 40.3672 103.538 43.2969C103.538 43.6094 103.538 43.8893 103.538 44.1367C103.538 44.3711 103.545 44.5859 103.558 44.7812C103.571 44.9766 103.59 45.1654 103.616 45.3477C103.655 45.5169 103.701 45.6992 103.753 45.8945C103.805 46.0768 103.877 46.2786 103.968 46.5H101.077C100.999 46.3438 100.934 46.1615 100.882 45.9531C100.83 45.7318 100.784 45.4128 100.745 44.9961C100.719 44.5794 100.7 43.9935 100.687 43.2383C100.674 42.4831 100.661 41.487 100.648 40.25C100.648 39.013 100.648 37.4701 100.648 35.6211C100.648 34.0456 100.609 32.8477 100.53 32.0273C100.465 31.207 100.218 30.6406 99.7883 30.3281C99.3716 30.0026 98.6424 29.8073 97.6008 29.7422L94.5148 29.5469V46.5H91.6047ZM94.4953 27.5938H97.5422C98.3755 27.5938 99.0135 27.4505 99.4562 27.1641C99.912 26.8646 100.224 26.2266 100.394 25.25C100.563 24.2604 100.648 22.737 100.648 20.6797V20.4258C100.648 18.7331 100.57 17.4701 100.413 16.6367C100.27 15.8034 99.9901 15.25 99.5734 14.9766C99.1568 14.6901 98.5513 14.5469 97.757 14.5469H94.4953V27.5938ZM114.471 46.8906C112.817 46.8906 111.548 46.513 110.662 45.7578C109.79 45.0026 109.191 43.8503 108.866 42.3008C108.553 40.7383 108.397 38.7591 108.397 36.3633V21.7344C108.397 19.7552 108.534 18.0104 108.807 16.5C109.08 14.9896 109.653 13.8112 110.526 12.9648C111.411 12.1055 112.772 11.6758 114.608 11.6758C115.988 11.6758 117.075 11.9232 117.87 12.418C118.664 12.8997 119.243 13.5898 119.608 14.4883C119.985 15.3867 120.226 16.4479 120.33 17.6719C120.435 18.8958 120.487 20.25 120.487 21.7344V36.3633C120.487 38.7591 120.33 40.7383 120.018 42.3008C119.705 43.8503 119.12 45.0026 118.26 45.7578C117.401 46.513 116.138 46.8906 114.471 46.8906ZM114.471 44.5078C115.304 44.5078 115.942 44.2669 116.385 43.7852C116.841 43.3034 117.153 42.4701 117.323 41.2852C117.492 40.1003 117.577 38.4596 117.577 36.3633V21.5C117.577 18.9089 117.388 17.0339 117.01 15.875C116.646 14.7031 115.845 14.1172 114.608 14.1172C113.306 14.1172 112.427 14.7031 111.971 15.875C111.528 17.0469 111.307 18.9154 111.307 21.4805V36.3633C111.307 38.4596 111.392 40.1003 111.561 41.2852C111.73 42.4701 112.043 43.3034 112.498 43.7852C112.954 44.2669 113.612 44.5078 114.471 44.5078ZM126.205 46.5V12.125H129.466L134.877 40.9922L140.091 12.125H143.353V46.5H140.716V31.7734L141.166 17.9258L136.263 45.7578H133.49L128.412 17.9258L128.861 31.7734V46.5H126.205ZM149.52 46.5V12.125H158.602V14.3906H152.43V27.8281H158.231V30.1914H152.43V44.1953H158.544V46.5H149.52ZM164.105 46.5V14.3906H160.512V12.125H170.219V14.3906H166.996V46.5H164.105ZM173.691 46.5V12.125H176.601V27.0078H182.89V12.125H185.8V46.5H182.89V29.1953H176.601V46.5H173.691ZM192.084 46.5V12.125H201.166V14.3906H194.995V27.8281H200.795V30.1914H194.995V44.1953H201.108V46.5H192.084ZM211.591 46.8906C209.977 46.8906 208.727 46.5586 207.841 45.8945C206.969 45.2174 206.364 44.2018 206.025 42.8477C205.686 41.4805 205.517 39.7552 205.517 37.6719V12.125H208.427V37.5742C208.427 39.0586 208.479 40.3216 208.584 41.3633C208.688 42.3919 208.961 43.1732 209.404 43.707C209.86 44.2409 210.595 44.5078 211.611 44.5078C212.64 44.5078 213.369 44.2409 213.798 43.707C214.228 43.1732 214.482 42.3919 214.56 41.3633C214.651 40.3346 214.697 39.0781 214.697 37.5938V12.125H217.607V37.6719C217.607 39.7552 217.444 41.4805 217.119 42.8477C216.793 44.2018 216.194 45.2174 215.322 45.8945C214.462 46.5586 213.219 46.8906 211.591 46.8906ZM228.345 46.8906C226.977 46.8906 225.89 46.6172 225.083 46.0703C224.289 45.5104 223.696 44.7487 223.305 43.7852C222.915 42.8086 222.661 41.6823 222.544 40.4062C222.427 39.1172 222.368 37.7435 222.368 36.2852V32.7305H225.22V36.2266C225.22 39.1693 225.428 41.2852 225.845 42.5742C226.274 43.8633 227.166 44.5078 228.52 44.5078C229.471 44.5078 230.148 44.2734 230.552 43.8047C230.968 43.3359 231.229 42.6003 231.333 41.5977C231.437 40.5951 231.489 39.2865 231.489 37.6719C231.489 35.901 231.268 34.4753 230.825 33.3945C230.395 32.3008 229.621 31.2396 228.501 30.2109L226.47 28.3359C225.845 27.763 225.193 27.099 224.516 26.3438C223.839 25.5885 223.266 24.7096 222.798 23.707C222.329 22.6914 222.095 21.526 222.095 20.2109C222.095 18.5573 222.238 17.0924 222.524 15.8164C222.824 14.5273 223.403 13.5182 224.262 12.7891C225.135 12.0469 226.437 11.6758 228.169 11.6758C229.575 11.6758 230.669 11.9492 231.45 12.4961C232.231 13.0299 232.791 13.7786 233.13 14.7422C233.481 15.7057 233.696 16.8255 233.774 18.1016C233.852 19.3776 233.891 20.7578 233.891 22.2422V24.1758H231.294V22.0273C231.294 19.918 231.196 18.2969 231.001 17.1641C230.818 16.0182 230.506 15.224 230.063 14.7812C229.621 14.3385 229.002 14.1172 228.208 14.1172C227.453 14.1172 226.834 14.2669 226.352 14.5664C225.884 14.8659 225.539 15.4193 225.317 16.2266C225.109 17.0208 225.005 18.1862 225.005 19.7227C225.005 20.8164 225.128 21.7018 225.376 22.3789C225.623 23.043 226.001 23.6484 226.509 24.1953C227.016 24.7422 227.648 25.3932 228.403 26.1484L230.298 28.0234C231.6 29.2995 232.615 30.7122 233.345 32.2617C234.087 33.8112 234.458 35.7188 234.458 37.9844C234.458 39.7292 234.308 41.2721 234.009 42.6133C233.709 43.9544 233.123 45.0026 232.251 45.7578C231.378 46.513 230.076 46.8906 228.345 46.8906ZM253.882 46.5V39.625H246.265V37.7305L253.706 12.125H256.519V37.3594H259.527V39.625H256.519V46.5H253.882ZM248.648 37.3594H253.882V17.8281L248.648 37.3594ZM269.888 46.5L275.416 12.125H278.384L284.498 46.5H281.685L280.552 39.4297H273.677L272.642 46.5H269.888ZM274.048 37.2617H280.162L276.998 17.6719H276.959L274.048 37.2617ZM288.262 46.5V12.125H291.173V46.5H288.262ZM295.289 46.5L299.84 28.5508L295.582 12.125H298.258L301.559 24.9961L304.723 12.125H307.145L302.809 29.8398L307.086 46.5H304.488L301.051 33.2188L297.711 46.5H295.289Z" fill="#6811AC"/>
<path d="M125.809 66.5V57.7109H127.156V58.6719C127.234 58.3906 127.4 58.1426 127.654 57.9277C127.908 57.709 128.215 57.5996 128.574 57.5996C129.043 57.5996 129.4 57.7617 129.646 58.0859C129.896 58.4102 130.021 58.8906 130.021 59.5273V66.5H128.674V59.5742C128.674 59.2852 128.609 59.0703 128.48 58.9297C128.352 58.7852 128.182 58.7129 127.971 58.7129C127.811 58.7129 127.668 58.752 127.543 58.8301C127.418 58.9082 127.322 59.0234 127.256 59.1758C127.189 59.3242 127.156 59.5098 127.156 59.7324V66.5H125.809ZM139.525 66.6055C139.096 66.6055 138.746 66.5332 138.477 66.3887C138.211 66.2441 138.006 66.0391 137.861 65.7734C137.721 65.5039 137.623 65.1816 137.568 64.8066C137.518 64.4316 137.492 64.0156 137.492 63.5586V60.377C137.492 59.9668 137.527 59.5918 137.598 59.252C137.668 58.9121 137.781 58.6191 137.938 58.373C138.098 58.127 138.312 57.9375 138.582 57.8047C138.852 57.6719 139.186 57.6055 139.584 57.6055C139.99 57.6055 140.322 57.6738 140.58 57.8105C140.838 57.9434 141.035 58.1348 141.172 58.3848C141.312 58.6309 141.41 58.9277 141.465 59.2754C141.52 59.6191 141.547 60.002 141.547 60.4238V62.1758H138.852V63.916C138.852 64.416 138.887 64.8047 138.957 65.082C139.031 65.3594 139.229 65.498 139.549 65.498C139.76 65.498 139.91 65.4336 140 65.3047C140.094 65.1719 140.15 64.9883 140.17 64.7539C140.189 64.5156 140.199 64.2402 140.199 63.9277V63.1895H141.529V63.6055C141.529 64.0664 141.506 64.4824 141.459 64.8535C141.412 65.2246 141.32 65.541 141.184 65.8027C141.051 66.0605 140.852 66.2598 140.586 66.4004C140.32 66.5371 139.967 66.6055 139.525 66.6055ZM138.846 61.3203H140.199V60.1953C140.199 59.8711 140.186 59.5977 140.158 59.375C140.135 59.1484 140.08 58.9785 139.994 58.8652C139.908 58.752 139.77 58.6953 139.578 58.6953C139.359 58.6953 139.197 58.7617 139.092 58.8945C138.986 59.0273 138.918 59.209 138.887 59.4395C138.859 59.6699 138.846 59.9355 138.846 60.2363V61.3203ZM149.674 66.5L148.402 57.7109H149.65L150.289 62.5684L150.506 64.6602H150.582L150.77 62.5625L151.326 57.7109H152.568L151.291 66.5H149.674ZM161.58 66.6055C161.15 66.6055 160.801 66.5332 160.531 66.3887C160.266 66.2441 160.061 66.0391 159.916 65.7734C159.775 65.5039 159.678 65.1816 159.623 64.8066C159.572 64.4316 159.547 64.0156 159.547 63.5586V60.377C159.547 59.9668 159.582 59.5918 159.652 59.252C159.723 58.9121 159.836 58.6191 159.992 58.373C160.152 58.127 160.367 57.9375 160.637 57.8047C160.906 57.6719 161.24 57.6055 161.639 57.6055C162.045 57.6055 162.377 57.6738 162.635 57.8105C162.893 57.9434 163.09 58.1348 163.227 58.3848C163.367 58.6309 163.465 58.9277 163.52 59.2754C163.574 59.6191 163.602 60.002 163.602 60.4238V62.1758H160.906V63.916C160.906 64.416 160.941 64.8047 161.012 65.082C161.086 65.3594 161.283 65.498 161.604 65.498C161.814 65.498 161.965 65.4336 162.055 65.3047C162.148 65.1719 162.205 64.9883 162.225 64.7539C162.244 64.5156 162.254 64.2402 162.254 63.9277V63.1895H163.584V63.6055C163.584 64.0664 163.561 64.4824 163.514 64.8535C163.467 65.2246 163.375 65.541 163.238 65.8027C163.105 66.0605 162.906 66.2598 162.641 66.4004C162.375 66.5371 162.021 66.6055 161.58 66.6055ZM160.9 61.3203H162.254V60.1953C162.254 59.8711 162.24 59.5977 162.213 59.375C162.189 59.1484 162.135 58.9785 162.049 58.8652C161.963 58.752 161.824 58.6953 161.633 58.6953C161.414 58.6953 161.252 58.7617 161.146 58.8945C161.041 59.0273 160.973 59.209 160.941 59.4395C160.914 59.6699 160.9 59.9355 160.9 60.2363V61.3203ZM171.002 66.5V57.7109H172.355V58.6895C172.457 58.3496 172.633 58.084 172.883 57.8926C173.137 57.7012 173.459 57.6055 173.85 57.6055C173.857 57.6055 173.861 57.6641 173.861 57.7812C173.865 57.8945 173.867 58.0254 173.867 58.1738C173.867 58.3223 173.867 58.4551 173.867 58.5723C173.867 58.6895 173.867 58.748 173.867 58.748C173.684 58.748 173.492 58.7695 173.293 58.8125C173.098 58.8555 172.916 58.9277 172.748 59.0293C172.584 59.127 172.453 59.2598 172.355 59.4277V66.5H171.002ZM189.477 66.5V57.7109H190.824V58.6426C190.906 58.3496 191.062 58.1035 191.293 57.9043C191.527 57.7012 191.834 57.5996 192.213 57.5996C192.506 57.5996 192.76 57.6699 192.975 57.8105C193.193 57.9473 193.361 58.1738 193.479 58.4902C193.623 58.2207 193.82 58.0059 194.07 57.8457C194.32 57.6816 194.619 57.5996 194.967 57.5996C195.475 57.5996 195.85 57.7773 196.092 58.1328C196.334 58.4844 196.455 58.9902 196.455 59.6504V66.5H195.107V59.6211C195.107 59.2969 195.047 59.0684 194.926 58.9355C194.809 58.8027 194.65 58.7363 194.451 58.7363C194.178 58.7363 193.975 58.8105 193.842 58.959C193.709 59.1035 193.643 59.3418 193.643 59.6738V66.5H192.289V59.6094C192.289 59.3203 192.234 59.1035 192.125 58.959C192.02 58.8105 191.861 58.7363 191.65 58.7363C191.369 58.7363 191.16 58.834 191.023 59.0293C190.891 59.2207 190.824 59.4648 190.824 59.7617V66.5H189.477ZM204.078 66.5V57.7109H205.426V66.5H204.078ZM204.072 56.9023V55.6953H205.426V56.9023H204.072ZM214.807 66.6172C214.146 66.6172 213.65 66.418 213.318 66.0195C212.986 65.6211 212.82 64.9668 212.82 64.0566V63.4355H214.109V64.1152C214.109 64.5605 214.16 64.9004 214.262 65.1348C214.363 65.3691 214.529 65.4863 214.76 65.4863C214.986 65.4863 215.154 65.4121 215.264 65.2637C215.373 65.1113 215.428 64.8457 215.428 64.4668C215.428 64.2637 215.396 64.0645 215.334 63.8691C215.275 63.6738 215.184 63.4805 215.059 63.2891C214.934 63.0977 214.773 62.9102 214.578 62.7266L213.881 62.082C213.514 61.7383 213.236 61.3711 213.049 60.9805C212.861 60.5898 212.768 60.166 212.768 59.709C212.768 58.9863 212.938 58.4551 213.277 58.1152C213.621 57.7754 214.107 57.6055 214.736 57.6055C215.15 57.6055 215.496 57.6914 215.773 57.8633C216.055 58.0312 216.266 58.3086 216.406 58.6953C216.547 59.082 216.617 59.6055 216.617 60.2656V60.7109H215.375V60.1133C215.375 59.668 215.328 59.3281 215.234 59.0938C215.141 58.8555 214.979 58.7363 214.748 58.7363C214.521 58.7363 214.354 58.8008 214.244 58.9297C214.135 59.0586 214.074 59.291 214.062 59.627C214.059 59.7988 214.08 59.9727 214.127 60.1484C214.178 60.3242 214.258 60.4961 214.367 60.6641C214.477 60.832 214.617 60.9961 214.789 61.1562L215.51 61.8184C215.932 62.2051 216.246 62.6152 216.453 63.0488C216.664 63.4824 216.77 63.9434 216.77 64.4316C216.77 65.127 216.609 65.666 216.289 66.0488C215.973 66.4277 215.479 66.6172 214.807 66.6172ZM225.658 66.6172C224.998 66.6172 224.502 66.418 224.17 66.0195C223.838 65.6211 223.672 64.9668 223.672 64.0566V63.4355H224.961V64.1152C224.961 64.5605 225.012 64.9004 225.113 65.1348C225.215 65.3691 225.381 65.4863 225.611 65.4863C225.838 65.4863 226.006 65.4121 226.115 65.2637C226.225 65.1113 226.279 64.8457 226.279 64.4668C226.279 64.2637 226.248 64.0645 226.186 63.8691C226.127 63.6738 226.035 63.4805 225.91 63.2891C225.785 63.0977 225.625 62.9102 225.43 62.7266L224.732 62.082C224.365 61.7383 224.088 61.3711 223.9 60.9805C223.713 60.5898 223.619 60.166 223.619 59.709C223.619 58.9863 223.789 58.4551 224.129 58.1152C224.473 57.7754 224.959 57.6055 225.588 57.6055C226.002 57.6055 226.348 57.6914 226.625 57.8633C226.906 58.0312 227.117 58.3086 227.258 58.6953C227.398 59.082 227.469 59.6055 227.469 60.2656V60.7109H226.227V60.1133C226.227 59.668 226.18 59.3281 226.086 59.0938C225.992 58.8555 225.83 58.7363 225.6 58.7363C225.373 58.7363 225.205 58.8008 225.096 58.9297C224.986 59.0586 224.926 59.291 224.914 59.627C224.91 59.7988 224.932 59.9727 224.979 60.1484C225.029 60.3242 225.109 60.4961 225.219 60.6641C225.328 60.832 225.469 60.9961 225.641 61.1562L226.361 61.8184C226.783 62.2051 227.098 62.6152 227.305 63.0488C227.516 63.4824 227.621 63.9434 227.621 64.4316C227.621 65.127 227.461 65.666 227.141 66.0488C226.824 66.4277 226.33 66.6172 225.658 66.6172ZM243.406 66.5V57.7109H244.754V66.5H243.406ZM243.4 56.9023V55.6953H244.754V56.9023H243.4ZM253.971 66.5527C253.596 66.5527 253.311 66.5078 253.115 66.418C252.924 66.3242 252.793 66.1758 252.723 65.9727C252.652 65.7695 252.617 65.5039 252.617 65.1758V58.8184H251.85V57.8281H252.617V56.1875H253.965V57.8281H254.879V58.8184H253.965V65.0059C253.965 65.1504 253.984 65.2578 254.023 65.3281C254.066 65.3984 254.154 65.4453 254.287 65.4688C254.42 65.4922 254.623 65.5039 254.896 65.5039V66.5527H253.971Z" fill="#EB491D"/>
</g>
<defs>
<linearGradient id="paint0_linear_147_47" x1="69.6466" y1="31.378" x2="-13.1144" y2="31.378" gradientUnits="userSpaceOnUse">
<stop stop-color="#FFAA11"/>
<stop offset="1" stop-color="#EB491D"/>
</linearGradient>
<linearGradient id="paint1_linear_147_47" x1="69.6466" y1="31.378" x2="-13.1144" y2="31.378" gradientUnits="userSpaceOnUse">
<stop stop-color="#FFAA11"/>
<stop offset="1" stop-color="#EB491D"/>
</linearGradient>
<linearGradient id="paint2_linear_147_47" x1="69.6466" y1="31.378" x2="-13.1144" y2="31.378" gradientUnits="userSpaceOnUse">
<stop stop-color="#FFAA11"/>
<stop offset="1" stop-color="#EB491D"/>
</linearGradient>
<linearGradient id="paint3_linear_147_47" x1="69.6466" y1="31.378" x2="-13.1144" y2="31.378" gradientUnits="userSpaceOnUse">
<stop stop-color="#FFAA11"/>
<stop offset="1" stop-color="#EB491D"/>
</linearGradient>
<linearGradient id="paint4_linear_147_47" x1="69.6466" y1="31.378" x2="-13.1144" y2="31.378" gradientUnits="userSpaceOnUse">
<stop stop-color="#FFAA11"/>
<stop offset="1" stop-color="#EB491D"/>
</linearGradient>
<linearGradient id="paint5_linear_147_47" x1="69.6466" y1="31.378" x2="-13.1144" y2="31.378" gradientUnits="userSpaceOnUse">
<stop stop-color="#FFAA11"/>
<stop offset="1" stop-color="#EB491D"/>
</linearGradient>
<linearGradient id="paint6_linear_147_47" x1="69.6466" y1="31.378" x2="-13.1144" y2="31.378" gradientUnits="userSpaceOnUse">
<stop stop-color="#FFAA11"/>
<stop offset="1" stop-color="#EB491D"/>
</linearGradient>
<linearGradient id="paint7_linear_147_47" x1="69.6466" y1="31.378" x2="-13.1144" y2="31.378" gradientUnits="userSpaceOnUse">
<stop stop-color="#FFAA11"/>
<stop offset="1" stop-color="#EB491D"/>
</linearGradient>
<linearGradient id="paint8_linear_147_47" x1="69.6466" y1="31.378" x2="-13.1144" y2="31.378" gradientUnits="userSpaceOnUse">
<stop stop-color="#FFAA11"/>
<stop offset="1" stop-color="#EB491D"/>
</linearGradient>
<linearGradient id="paint9_linear_147_47" x1="48.0159" y1="22.5" x2="-0.961683" y2="58.4285" gradientUnits="userSpaceOnUse">
<stop stop-color="#EB491D"/>
<stop offset="1" stop-color="#FFAA11"/>
</linearGradient>
<clipPath id="clip0_147_47">
<rect width="237" height="68" fill="white" transform="translate(72 0.5)"/>
</clipPath>
</defs>
</svg>
