<svg width="960" height="115" viewBox="0 0 960 115" fill="none" xmlns="http://www.w3.org/2000/svg">
<rect width="960" height="115" fill="white"/>
<path d="M42 58.5C35.5122 76.5 51.5135 87.5 59 89.5C35.5379 66.5 65.5074 61.5 69 45.5C70.6759 37.8226 68.6641 29 67 25.5C61.0115 47.5 47.2263 44 42 58.5Z" fill="url(#paint0_linear_1_3944)"/>
<path d="M56 69.5C53.8549 73.9311 52.5176 83 64 89.5C54.0153 72 75.2714 72 78 59.5C79.6759 51.8226 78.6641 46 77 42.5C69.5094 64 60.9924 59.1875 56 69.5Z" fill="url(#paint1_linear_1_3944)"/>
<path d="M48 39.5C48 40.0523 47.5514 40.5 47 40.5C46.4486 40.5 46 40.0523 46 39.5C46 38.9477 46.4486 38.5 47 38.5C47.5514 38.5 48 38.9477 48 39.5Z" fill="url(#paint2_linear_1_3944)"/>
<path d="M48 43.5C48 44.0523 47.5514 44.5 47 44.5C46.4486 44.5 46 44.0523 46 43.5C46 42.9477 46.4486 42.5 47 42.5C47.5514 42.5 48 42.9477 48 43.5Z" fill="url(#paint3_linear_1_3944)"/>
<path d="M48 47.5C48 48.0523 47.5514 48.5 47 48.5C46.4486 48.5 46 48.0523 46 47.5C46 46.9477 46.4486 46.5 47 46.5C47.5514 46.5 48 46.9477 48 47.5Z" fill="url(#paint4_linear_1_3944)"/>
<path d="M48 56.5C48 57.0523 47.5514 57.5 47 57.5C46.4486 57.5 46 57.0523 46 56.5C46 55.9477 46.4486 55.5 47 55.5C47.5514 55.5 48 55.9477 48 56.5Z" fill="url(#paint5_linear_1_3944)"/>
<path d="M66 81.5L71 78.5V89.5H66V81.5Z" fill="url(#paint6_linear_1_3944)"/>
<path d="M74 77.5L79 74.5V89.5H74V77.5Z" fill="url(#paint7_linear_1_3944)"/>
<path d="M82 60.5L87 57.5V89.5H82V60.5Z" fill="url(#paint8_linear_1_3944)"/>
<path d="M40 79.5V78.5C63.9746 69.4539 67.9735 67.9881 88 45.5V46.5C71.4768 65.4887 64.4719 70.9506 40 79.5Z" fill="url(#paint9_linear_1_3944)"/>
<g clip-path="url(#clip0_1_3944)">
<path d="M114.105 63.5V39.4375H118.645C119.611 39.4375 120.385 39.6016 120.969 39.9297C121.552 40.2578 121.99 40.7272 122.281 41.3379C122.582 41.9486 122.778 42.6823 122.869 43.5391C122.969 44.3867 123.02 45.3301 123.02 46.3691V46.6836C123.02 48.3242 122.896 49.6914 122.65 50.7852C122.413 51.8789 121.976 52.6992 121.338 53.2461C120.7 53.793 119.784 54.0664 118.59 54.0664H116.58V63.5H114.105ZM116.58 51.9883H118.494C119.059 51.9883 119.488 51.8242 119.779 51.4961C120.071 51.168 120.271 50.6211 120.381 49.8555C120.49 49.0807 120.545 48.028 120.545 46.6973V46.2324C120.554 44.5918 120.436 43.3841 120.189 42.6094C119.943 41.8255 119.406 41.4336 118.576 41.4336H116.58V51.9883ZM125.915 63.5V39.4375H130.536C131.812 39.4375 132.755 39.6562 133.366 40.0938C133.977 40.5221 134.373 41.1829 134.555 42.0762C134.738 42.9694 134.829 44.1042 134.829 45.4805C134.829 46.9935 134.674 48.2012 134.364 49.1035C134.054 50.0059 133.471 50.5801 132.614 50.8262C133.07 50.8991 133.439 51.0951 133.721 51.4141C134.013 51.724 134.236 52.2253 134.391 52.918C134.555 53.6107 134.669 54.5495 134.733 55.7344C134.797 56.9102 134.829 58.4049 134.829 60.2188C134.829 60.401 134.829 60.6107 134.829 60.8477C134.829 61.0846 134.833 61.3307 134.842 61.5859C134.852 61.8411 134.865 62.0918 134.883 62.3379C134.902 62.5749 134.924 62.7936 134.952 62.9941C134.988 63.1947 135.029 63.3633 135.075 63.5H132.614C132.568 63.4089 132.532 63.2539 132.505 63.0352C132.477 62.8073 132.45 62.502 132.422 62.1191C132.404 61.7272 132.391 61.235 132.381 60.6426C132.372 60.0501 132.368 59.3392 132.368 58.5098C132.368 57.6803 132.368 56.7142 132.368 55.6113C132.368 54.6178 132.331 53.8613 132.258 53.3418C132.195 52.8132 132.017 52.4486 131.725 52.248C131.434 52.0475 130.955 51.9245 130.29 51.8789L128.389 51.7695V63.5H125.915ZM128.376 50.0059H130.331C130.878 50.0059 131.297 49.9056 131.589 49.7051C131.889 49.4954 132.094 49.0671 132.204 48.4199C132.313 47.7728 132.368 46.7884 132.368 45.4668V45.2891C132.368 44.1953 132.318 43.375 132.217 42.8281C132.117 42.2721 131.926 41.903 131.643 41.7207C131.361 41.5293 130.941 41.4336 130.385 41.4336H128.376V50.0059ZM142.591 63.7734C141.406 63.7734 140.481 63.5091 139.816 62.9805C139.159 62.4518 138.699 61.6497 138.435 60.5742C138.171 59.4987 138.038 58.1406 138.038 56.5V46.0547C138.038 44.6693 138.157 43.4616 138.394 42.4316C138.631 41.3926 139.082 40.5859 139.747 40.0117C140.413 39.4284 141.388 39.1367 142.673 39.1367C143.639 39.1367 144.414 39.3008 144.997 39.6289C145.581 39.957 146.023 40.4264 146.324 41.0371C146.624 41.6478 146.825 42.377 146.925 43.2246C147.034 44.0723 147.089 45.0156 147.089 46.0547V56.5C147.089 58.1406 146.962 59.4987 146.706 60.5742C146.451 61.6497 145.995 62.4518 145.339 62.9805C144.692 63.5091 143.776 63.7734 142.591 63.7734ZM142.591 61.6816C143.138 61.6816 143.557 61.5267 143.849 61.2168C144.141 60.8978 144.341 60.3646 144.45 59.6172C144.56 58.8607 144.615 57.8262 144.615 56.5137V45.8906C144.615 44.2865 144.491 43.1107 144.245 42.3633C144.008 41.6159 143.484 41.2422 142.673 41.2422C141.825 41.2422 141.251 41.6159 140.95 42.3633C140.659 43.1107 140.513 44.2819 140.513 45.877V56.5137C140.513 57.8262 140.568 58.8607 140.677 59.6172C140.786 60.3646 140.991 60.8978 141.292 61.2168C141.593 61.5267 142.026 61.6816 142.591 61.6816ZM150.818 63.5V39.4375H153.635L157.381 59.1113L160.976 39.4375H163.807V63.5H161.646V53.8613L161.906 44.5508L158.365 63.2676H156.383L152.705 44.5508L152.978 53.8613V63.5H150.818ZM167.85 63.5V39.4375H174.672V41.4473H170.325V50.1973H174.426V52.248H170.325V61.4766H174.672V63.5H167.85ZM178.607 63.5V41.4473H176.023V39.4375H183.446V41.4473H181.068V63.5H178.607ZM185.726 63.5V39.4375H188.201V49.7871H192.303V39.4375H194.777V63.5H192.303V51.7559H188.201V63.5H185.726ZM198.848 63.5V39.4375H205.67V41.4473H201.323V50.1973H205.424V52.248H201.323V61.4766H205.67V63.5H198.848ZM213.118 63.7871C211.961 63.7871 211.049 63.5547 210.384 63.0898C209.728 62.6159 209.263 61.9004 208.989 60.9434C208.716 59.9863 208.579 58.7786 208.579 57.3203V39.4375H211.054V57.252C211.054 58.1908 211.086 58.9974 211.15 59.6719C211.222 60.3372 211.405 60.8431 211.696 61.1895C211.988 61.5358 212.462 61.709 213.118 61.709C213.793 61.709 214.271 61.5358 214.554 61.1895C214.836 60.8431 215.005 60.3372 215.06 59.6719C215.123 59.0065 215.155 58.2044 215.155 57.2656V39.4375H217.616V57.3203C217.616 58.7786 217.484 59.9863 217.22 60.9434C216.956 61.9004 216.495 62.6159 215.839 63.0898C215.192 63.5547 214.285 63.7871 213.118 63.7871ZM225.119 63.7734C224.153 63.7734 223.373 63.5911 222.781 63.2266C222.198 62.8529 221.756 62.3379 221.455 61.6816C221.154 61.0163 220.949 60.2415 220.84 59.3574C220.739 58.4733 220.689 57.5072 220.689 56.459V54.0527H223.095V56.5C223.095 58.3503 223.228 59.681 223.492 60.4922C223.756 61.2943 224.326 61.6953 225.201 61.6953C225.802 61.6953 226.24 61.5495 226.513 61.2578C226.787 60.9661 226.96 60.5059 227.033 59.877C227.106 59.2389 227.142 58.4095 227.142 57.3887C227.142 56.2402 226.969 55.2832 226.623 54.5176C226.276 53.7428 225.73 53 224.982 52.2891L223.478 50.8262C223.032 50.3887 222.58 49.901 222.125 49.3633C221.669 48.8255 221.286 48.2057 220.976 47.5039C220.676 46.793 220.525 45.9818 220.525 45.0703C220.525 43.8854 220.639 42.8509 220.867 41.9668C221.104 41.0736 221.546 40.3809 222.193 39.8887C222.84 39.3874 223.775 39.1367 224.996 39.1367C225.98 39.1367 226.755 39.3145 227.32 39.6699C227.894 40.0254 228.314 40.5267 228.578 41.1738C228.851 41.8118 229.025 42.5684 229.097 43.4434C229.179 44.3184 229.22 45.2754 229.22 46.3145V47.709H226.91V46.1367C226.91 44.9427 226.86 43.9902 226.76 43.2793C226.659 42.5592 226.472 42.0397 226.199 41.7207C225.935 41.3926 225.538 41.2285 225.01 41.2285C224.526 41.2285 224.13 41.3379 223.82 41.5566C223.51 41.7754 223.287 42.14 223.15 42.6504C223.013 43.1517 222.945 43.8444 222.945 44.7285C222.945 45.4303 223.027 46 223.191 46.4375C223.355 46.875 223.601 47.2806 223.929 47.6543C224.267 48.0189 224.677 48.4518 225.16 48.9531L226.664 50.498C227.548 51.4004 228.259 52.403 228.797 53.5059C229.334 54.5996 229.603 55.9121 229.603 57.4434C229.603 58.7194 229.485 59.8359 229.248 60.793C229.011 61.7409 228.569 62.4746 227.922 62.9941C227.284 63.5137 226.349 63.7734 225.119 63.7734ZM243.515 63.5V58.8379H237.978V57.1426L243.269 39.4375H245.757V56.8828H247.794V58.8379H245.757V63.5H243.515ZM240.015 56.8828H243.515V43.8535L240.015 56.8828ZM255.198 63.5L258.944 39.4375H261.76L265.875 63.5H263.524L262.785 58.7422H258.219L257.549 63.5H255.198ZM258.52 56.8008H262.471L260.434 43.6348H260.393L258.52 56.8008ZM268.456 63.5V39.4375H270.931V63.5H268.456ZM273.58 63.5L276.916 50.8398L273.73 39.4375H275.945L278.269 47.9004L280.402 39.4375H282.576L279.363 51.8105L282.617 63.5H280.443L278.009 54.75L275.767 63.5H273.58Z" fill="#6811AC"/>
<path d="M133.309 81.5V72.7109H134.656V73.6719C134.734 73.3906 134.9 73.1426 135.154 72.9277C135.408 72.709 135.715 72.5996 136.074 72.5996C136.543 72.5996 136.9 72.7617 137.146 73.0859C137.396 73.4102 137.521 73.8906 137.521 74.5273V81.5H136.174V74.5742C136.174 74.2852 136.109 74.0703 135.98 73.9297C135.852 73.7852 135.682 73.7129 135.471 73.7129C135.311 73.7129 135.168 73.752 135.043 73.8301C134.918 73.9082 134.822 74.0234 134.756 74.1758C134.689 74.3242 134.656 74.5098 134.656 74.7324V81.5H133.309ZM147.025 81.6055C146.596 81.6055 146.246 81.5332 145.977 81.3887C145.711 81.2441 145.506 81.0391 145.361 80.7734C145.221 80.5039 145.123 80.1816 145.068 79.8066C145.018 79.4316 144.992 79.0156 144.992 78.5586V75.377C144.992 74.9668 145.027 74.5918 145.098 74.252C145.168 73.9121 145.281 73.6191 145.438 73.373C145.598 73.127 145.812 72.9375 146.082 72.8047C146.352 72.6719 146.686 72.6055 147.084 72.6055C147.49 72.6055 147.822 72.6738 148.08 72.8105C148.338 72.9434 148.535 73.1348 148.672 73.3848C148.812 73.6309 148.91 73.9277 148.965 74.2754C149.02 74.6191 149.047 75.002 149.047 75.4238V77.1758H146.352V78.916C146.352 79.416 146.387 79.8047 146.457 80.082C146.531 80.3594 146.729 80.498 147.049 80.498C147.26 80.498 147.41 80.4336 147.5 80.3047C147.594 80.1719 147.65 79.9883 147.67 79.7539C147.689 79.5156 147.699 79.2402 147.699 78.9277V78.1895H149.029V78.6055C149.029 79.0664 149.006 79.4824 148.959 79.8535C148.912 80.2246 148.82 80.541 148.684 80.8027C148.551 81.0605 148.352 81.2598 148.086 81.4004C147.82 81.5371 147.467 81.6055 147.025 81.6055ZM146.346 76.3203H147.699V75.1953C147.699 74.8711 147.686 74.5977 147.658 74.375C147.635 74.1484 147.58 73.9785 147.494 73.8652C147.408 73.752 147.27 73.6953 147.078 73.6953C146.859 73.6953 146.697 73.7617 146.592 73.8945C146.486 74.0273 146.418 74.209 146.387 74.4395C146.359 74.6699 146.346 74.9355 146.346 75.2363V76.3203ZM157.174 81.5L155.902 72.7109H157.15L157.789 77.5684L158.006 79.6602H158.082L158.27 77.5625L158.826 72.7109H160.068L158.791 81.5H157.174ZM169.08 81.6055C168.65 81.6055 168.301 81.5332 168.031 81.3887C167.766 81.2441 167.561 81.0391 167.416 80.7734C167.275 80.5039 167.178 80.1816 167.123 79.8066C167.072 79.4316 167.047 79.0156 167.047 78.5586V75.377C167.047 74.9668 167.082 74.5918 167.152 74.252C167.223 73.9121 167.336 73.6191 167.492 73.373C167.652 73.127 167.867 72.9375 168.137 72.8047C168.406 72.6719 168.74 72.6055 169.139 72.6055C169.545 72.6055 169.877 72.6738 170.135 72.8105C170.393 72.9434 170.59 73.1348 170.727 73.3848C170.867 73.6309 170.965 73.9277 171.02 74.2754C171.074 74.6191 171.102 75.002 171.102 75.4238V77.1758H168.406V78.916C168.406 79.416 168.441 79.8047 168.512 80.082C168.586 80.3594 168.783 80.498 169.104 80.498C169.314 80.498 169.465 80.4336 169.555 80.3047C169.648 80.1719 169.705 79.9883 169.725 79.7539C169.744 79.5156 169.754 79.2402 169.754 78.9277V78.1895H171.084V78.6055C171.084 79.0664 171.061 79.4824 171.014 79.8535C170.967 80.2246 170.875 80.541 170.738 80.8027C170.605 81.0605 170.406 81.2598 170.141 81.4004C169.875 81.5371 169.521 81.6055 169.08 81.6055ZM168.4 76.3203H169.754V75.1953C169.754 74.8711 169.74 74.5977 169.713 74.375C169.689 74.1484 169.635 73.9785 169.549 73.8652C169.463 73.752 169.324 73.6953 169.133 73.6953C168.914 73.6953 168.752 73.7617 168.646 73.8945C168.541 74.0273 168.473 74.209 168.441 74.4395C168.414 74.6699 168.4 74.9355 168.4 75.2363V76.3203ZM178.502 81.5V72.7109H179.855V73.6895C179.957 73.3496 180.133 73.084 180.383 72.8926C180.637 72.7012 180.959 72.6055 181.35 72.6055C181.357 72.6055 181.361 72.6641 181.361 72.7812C181.365 72.8945 181.367 73.0254 181.367 73.1738C181.367 73.3223 181.367 73.4551 181.367 73.5723C181.367 73.6895 181.367 73.748 181.367 73.748C181.184 73.748 180.992 73.7695 180.793 73.8125C180.598 73.8555 180.416 73.9277 180.248 74.0293C180.084 74.127 179.953 74.2598 179.855 74.4277V81.5H178.502ZM196.977 81.5V72.7109H198.324V73.6426C198.406 73.3496 198.562 73.1035 198.793 72.9043C199.027 72.7012 199.334 72.5996 199.713 72.5996C200.006 72.5996 200.26 72.6699 200.475 72.8105C200.693 72.9473 200.861 73.1738 200.979 73.4902C201.123 73.2207 201.32 73.0059 201.57 72.8457C201.82 72.6816 202.119 72.5996 202.467 72.5996C202.975 72.5996 203.35 72.7773 203.592 73.1328C203.834 73.4844 203.955 73.9902 203.955 74.6504V81.5H202.607V74.6211C202.607 74.2969 202.547 74.0684 202.426 73.9355C202.309 73.8027 202.15 73.7363 201.951 73.7363C201.678 73.7363 201.475 73.8105 201.342 73.959C201.209 74.1035 201.143 74.3418 201.143 74.6738V81.5H199.789V74.6094C199.789 74.3203 199.734 74.1035 199.625 73.959C199.52 73.8105 199.361 73.7363 199.15 73.7363C198.869 73.7363 198.66 73.834 198.523 74.0293C198.391 74.2207 198.324 74.4648 198.324 74.7617V81.5H196.977ZM211.578 81.5V72.7109H212.926V81.5H211.578ZM211.572 71.9023V70.6953H212.926V71.9023H211.572ZM222.307 81.6172C221.646 81.6172 221.15 81.418 220.818 81.0195C220.486 80.6211 220.32 79.9668 220.32 79.0566V78.4355H221.609V79.1152C221.609 79.5605 221.66 79.9004 221.762 80.1348C221.863 80.3691 222.029 80.4863 222.26 80.4863C222.486 80.4863 222.654 80.4121 222.764 80.2637C222.873 80.1113 222.928 79.8457 222.928 79.4668C222.928 79.2637 222.896 79.0645 222.834 78.8691C222.775 78.6738 222.684 78.4805 222.559 78.2891C222.434 78.0977 222.273 77.9102 222.078 77.7266L221.381 77.082C221.014 76.7383 220.736 76.3711 220.549 75.9805C220.361 75.5898 220.268 75.166 220.268 74.709C220.268 73.9863 220.438 73.4551 220.777 73.1152C221.121 72.7754 221.607 72.6055 222.236 72.6055C222.65 72.6055 222.996 72.6914 223.273 72.8633C223.555 73.0312 223.766 73.3086 223.906 73.6953C224.047 74.082 224.117 74.6055 224.117 75.2656V75.7109H222.875V75.1133C222.875 74.668 222.828 74.3281 222.734 74.0938C222.641 73.8555 222.479 73.7363 222.248 73.7363C222.021 73.7363 221.854 73.8008 221.744 73.9297C221.635 74.0586 221.574 74.291 221.562 74.627C221.559 74.7988 221.58 74.9727 221.627 75.1484C221.678 75.3242 221.758 75.4961 221.867 75.6641C221.977 75.832 222.117 75.9961 222.289 76.1562L223.01 76.8184C223.432 77.2051 223.746 77.6152 223.953 78.0488C224.164 78.4824 224.27 78.9434 224.27 79.4316C224.27 80.127 224.109 80.666 223.789 81.0488C223.473 81.4277 222.979 81.6172 222.307 81.6172ZM233.158 81.6172C232.498 81.6172 232.002 81.418 231.67 81.0195C231.338 80.6211 231.172 79.9668 231.172 79.0566V78.4355H232.461V79.1152C232.461 79.5605 232.512 79.9004 232.613 80.1348C232.715 80.3691 232.881 80.4863 233.111 80.4863C233.338 80.4863 233.506 80.4121 233.615 80.2637C233.725 80.1113 233.779 79.8457 233.779 79.4668C233.779 79.2637 233.748 79.0645 233.686 78.8691C233.627 78.6738 233.535 78.4805 233.41 78.2891C233.285 78.0977 233.125 77.9102 232.93 77.7266L232.232 77.082C231.865 76.7383 231.588 76.3711 231.4 75.9805C231.213 75.5898 231.119 75.166 231.119 74.709C231.119 73.9863 231.289 73.4551 231.629 73.1152C231.973 72.7754 232.459 72.6055 233.088 72.6055C233.502 72.6055 233.848 72.6914 234.125 72.8633C234.406 73.0312 234.617 73.3086 234.758 73.6953C234.898 74.082 234.969 74.6055 234.969 75.2656V75.7109H233.727V75.1133C233.727 74.668 233.68 74.3281 233.586 74.0938C233.492 73.8555 233.33 73.7363 233.1 73.7363C232.873 73.7363 232.705 73.8008 232.596 73.9297C232.486 74.0586 232.426 74.291 232.414 74.627C232.41 74.7988 232.432 74.9727 232.479 75.1484C232.529 75.3242 232.609 75.4961 232.719 75.6641C232.828 75.832 232.969 75.9961 233.141 76.1562L233.861 76.8184C234.283 77.2051 234.598 77.6152 234.805 78.0488C235.016 78.4824 235.121 78.9434 235.121 79.4316C235.121 80.127 234.961 80.666 234.641 81.0488C234.324 81.4277 233.83 81.6172 233.158 81.6172ZM250.906 81.5V72.7109H252.254V81.5H250.906ZM250.9 71.9023V70.6953H252.254V71.9023H250.9ZM261.471 81.5527C261.096 81.5527 260.811 81.5078 260.615 81.418C260.424 81.3242 260.293 81.1758 260.223 80.9727C260.152 80.7695 260.117 80.5039 260.117 80.1758V73.8184H259.35V72.8281H260.117V71.1875H261.465V72.8281H262.379V73.8184H261.465V80.0059C261.465 80.1504 261.484 80.2578 261.523 80.3281C261.566 80.3984 261.654 80.4453 261.787 80.4688C261.92 80.4922 262.123 80.5039 262.396 80.5039V81.5527H261.471Z" fill="#EB491D"/>
</g>
<path d="M470.164 59.335H471.477C471.408 59.9639 471.228 60.5267 470.937 61.0234C470.645 61.5202 470.232 61.9144 469.699 62.2061C469.166 62.4932 468.501 62.6367 467.703 62.6367C467.12 62.6367 466.589 62.5273 466.11 62.3086C465.636 62.0898 465.229 61.7799 464.887 61.3789C464.545 60.9733 464.281 60.488 464.094 59.9229C463.911 59.3532 463.82 58.7197 463.82 58.0225V57.0312C463.82 56.334 463.911 55.7028 464.094 55.1377C464.281 54.568 464.547 54.0804 464.894 53.6748C465.244 53.2692 465.666 52.957 466.158 52.7383C466.65 52.5195 467.204 52.4102 467.819 52.4102C468.571 52.4102 469.207 52.5514 469.727 52.834C470.246 53.1165 470.649 53.5085 470.937 54.0098C471.228 54.5065 471.408 55.083 471.477 55.7393H470.164C470.1 55.2744 469.982 54.8757 469.809 54.543C469.635 54.2057 469.389 53.946 469.07 53.7637C468.751 53.5814 468.334 53.4902 467.819 53.4902C467.377 53.4902 466.988 53.5745 466.65 53.7432C466.318 53.9118 466.037 54.151 465.81 54.4609C465.586 54.7708 465.418 55.1423 465.304 55.5752C465.19 56.0081 465.133 56.4889 465.133 57.0176V58.0225C465.133 58.5101 465.183 58.9681 465.283 59.3965C465.388 59.8249 465.545 60.2008 465.755 60.5244C465.965 60.848 466.231 61.1032 466.555 61.29C466.878 61.4723 467.261 61.5635 467.703 61.5635C468.264 61.5635 468.71 61.4746 469.043 61.2969C469.376 61.1191 469.626 60.8639 469.795 60.5312C469.968 60.1986 470.091 59.7998 470.164 59.335ZM480.938 57.209V57.8379C480.938 58.5853 480.844 59.2552 480.657 59.8477C480.47 60.4401 480.201 60.9437 479.851 61.3584C479.5 61.7731 479.078 62.0898 478.586 62.3086C478.098 62.5273 477.551 62.6367 476.945 62.6367C476.357 62.6367 475.817 62.5273 475.325 62.3086C474.838 62.0898 474.414 61.7731 474.054 61.3584C473.698 60.9437 473.423 60.4401 473.227 59.8477C473.031 59.2552 472.933 58.5853 472.933 57.8379V57.209C472.933 56.4616 473.028 55.7939 473.22 55.2061C473.416 54.6136 473.691 54.11 474.047 53.6953C474.402 53.276 474.824 52.957 475.312 52.7383C475.804 52.5195 476.344 52.4102 476.932 52.4102C477.538 52.4102 478.085 52.5195 478.572 52.7383C479.064 52.957 479.486 53.276 479.837 53.6953C480.192 54.11 480.464 54.6136 480.65 55.2061C480.842 55.7939 480.938 56.4616 480.938 57.209ZM479.632 57.8379V57.1953C479.632 56.6029 479.57 56.0788 479.447 55.623C479.329 55.1673 479.153 54.7845 478.921 54.4746C478.688 54.1647 478.404 53.93 478.066 53.7705C477.734 53.611 477.355 53.5312 476.932 53.5312C476.521 53.5312 476.15 53.611 475.817 53.7705C475.489 53.93 475.207 54.1647 474.97 54.4746C474.737 54.7845 474.557 55.1673 474.43 55.623C474.302 56.0788 474.238 56.6029 474.238 57.1953V57.8379C474.238 58.4349 474.302 58.9635 474.43 59.4238C474.557 59.8796 474.74 60.2646 474.977 60.5791C475.218 60.889 475.503 61.1237 475.831 61.2832C476.164 61.4427 476.535 61.5225 476.945 61.5225C477.374 61.5225 477.754 61.4427 478.087 61.2832C478.42 61.1237 478.7 60.889 478.928 60.5791C479.16 60.2646 479.336 59.8796 479.454 59.4238C479.573 58.9635 479.632 58.4349 479.632 57.8379ZM490.569 52.5469V62.5H489.243L484.232 54.8232V62.5H482.913V52.5469H484.232L489.264 60.2441V52.5469H490.569ZM496.38 52.5469V62.5H495.081V52.5469H496.38ZM499.579 52.5469V53.627H491.889V52.5469H499.579ZM504.193 53.4287L500.898 62.5H499.552L503.346 52.5469H504.214L504.193 53.4287ZM506.955 62.5L503.653 53.4287L503.633 52.5469H504.501L508.309 62.5H506.955ZM506.784 58.8154V59.8955H501.192V58.8154H506.784ZM515.568 59.335H516.881C516.812 59.9639 516.632 60.5267 516.341 61.0234C516.049 61.5202 515.637 61.9144 515.104 62.2061C514.57 62.4932 513.905 62.6367 513.107 62.6367C512.524 62.6367 511.993 62.5273 511.515 62.3086C511.041 62.0898 510.633 61.7799 510.291 61.3789C509.949 60.9733 509.685 60.488 509.498 59.9229C509.316 59.3532 509.225 58.7197 509.225 58.0225V57.0312C509.225 56.334 509.316 55.7028 509.498 55.1377C509.685 54.568 509.951 54.0804 510.298 53.6748C510.649 53.2692 511.07 52.957 511.562 52.7383C512.055 52.5195 512.608 52.4102 513.224 52.4102C513.976 52.4102 514.611 52.5514 515.131 52.834C515.65 53.1165 516.054 53.5085 516.341 54.0098C516.632 54.5065 516.812 55.083 516.881 55.7393H515.568C515.505 55.2744 515.386 54.8757 515.213 54.543C515.04 54.2057 514.794 53.946 514.475 53.7637C514.156 53.5814 513.739 53.4902 513.224 53.4902C512.782 53.4902 512.392 53.5745 512.055 53.7432C511.722 53.9118 511.442 54.151 511.214 54.4609C510.991 54.7708 510.822 55.1423 510.708 55.5752C510.594 56.0081 510.537 56.4889 510.537 57.0176V58.0225C510.537 58.5101 510.587 58.9681 510.688 59.3965C510.792 59.8249 510.95 60.2008 511.159 60.5244C511.369 60.848 511.635 61.1032 511.959 61.29C512.283 61.4723 512.665 61.5635 513.107 61.5635C513.668 61.5635 514.115 61.4746 514.447 61.2969C514.78 61.1191 515.031 60.8639 515.199 60.5312C515.372 60.1986 515.495 59.7998 515.568 59.335ZM522.151 52.5469V62.5H520.853V52.5469H522.151ZM525.351 52.5469V53.627H517.66V52.5469H525.351ZM532.022 59.9844C532.022 59.752 531.986 59.5469 531.913 59.3691C531.845 59.1868 531.722 59.0228 531.544 58.877C531.371 58.7311 531.129 58.5921 530.819 58.46C530.514 58.3278 530.127 58.1934 529.657 58.0566C529.165 57.9108 528.721 57.749 528.324 57.5713C527.928 57.389 527.588 57.1816 527.306 56.9492C527.023 56.7168 526.807 56.4502 526.656 56.1494C526.506 55.8486 526.431 55.5046 526.431 55.1172C526.431 54.7298 526.51 54.3721 526.67 54.0439C526.829 53.7158 527.057 53.431 527.354 53.1895C527.654 52.9434 528.012 52.752 528.427 52.6152C528.841 52.4785 529.304 52.4102 529.814 52.4102C530.562 52.4102 531.195 52.5537 531.715 52.8408C532.239 53.1234 532.638 53.4948 532.911 53.9551C533.185 54.4108 533.321 54.8984 533.321 55.418H532.009C532.009 55.0443 531.929 54.7139 531.77 54.4268C531.61 54.1351 531.368 53.9072 531.045 53.7432C530.721 53.5745 530.311 53.4902 529.814 53.4902C529.345 53.4902 528.958 53.5609 528.652 53.7021C528.347 53.8434 528.119 54.0348 527.969 54.2764C527.823 54.5179 527.75 54.7936 527.75 55.1035C527.75 55.3132 527.793 55.5046 527.88 55.6777C527.971 55.8464 528.11 56.0036 528.297 56.1494C528.488 56.2952 528.73 56.4297 529.021 56.5527C529.318 56.6758 529.671 56.7943 530.081 56.9082C530.646 57.0677 531.134 57.2454 531.544 57.4414C531.954 57.6374 532.291 57.8584 532.556 58.1045C532.825 58.346 533.023 58.6217 533.15 58.9316C533.283 59.237 533.349 59.5833 533.349 59.9707C533.349 60.3763 533.267 60.7432 533.103 61.0713C532.938 61.3994 532.704 61.6797 532.398 61.9121C532.093 62.1445 531.726 62.3245 531.298 62.4521C530.874 62.5752 530.4 62.6367 529.876 62.6367C529.416 62.6367 528.962 62.5729 528.516 62.4453C528.074 62.3177 527.67 62.1263 527.306 61.8711C526.946 61.6159 526.656 61.3014 526.438 60.9277C526.223 60.5495 526.116 60.112 526.116 59.6152H527.429C527.429 59.957 527.495 60.251 527.627 60.4971C527.759 60.7386 527.939 60.9391 528.167 61.0986C528.399 61.2581 528.661 61.3766 528.953 61.4541C529.249 61.527 529.557 61.5635 529.876 61.5635C530.336 61.5635 530.726 61.4997 531.045 61.3721C531.364 61.2445 531.605 61.0622 531.77 60.8252C531.938 60.5882 532.022 60.3079 532.022 59.9844Z" fill="#563075"/>
<path d="M556.571 59.9844C556.571 59.752 556.535 59.5469 556.462 59.3691C556.394 59.1868 556.271 59.0228 556.093 58.877C555.92 58.7311 555.678 58.5921 555.368 58.46C555.063 58.3278 554.675 58.1934 554.206 58.0566C553.714 57.9108 553.27 57.749 552.873 57.5713C552.477 57.389 552.137 57.1816 551.854 56.9492C551.572 56.7168 551.355 56.4502 551.205 56.1494C551.055 55.8486 550.979 55.5046 550.979 55.1172C550.979 54.7298 551.059 54.3721 551.219 54.0439C551.378 53.7158 551.606 53.431 551.902 53.1895C552.203 52.9434 552.561 52.752 552.976 52.6152C553.39 52.4785 553.853 52.4102 554.363 52.4102C555.111 52.4102 555.744 52.5537 556.264 52.8408C556.788 53.1234 557.187 53.4948 557.46 53.9551C557.733 54.4108 557.87 54.8984 557.87 55.418H556.558C556.558 55.0443 556.478 54.7139 556.318 54.4268C556.159 54.1351 555.917 53.9072 555.594 53.7432C555.27 53.5745 554.86 53.4902 554.363 53.4902C553.894 53.4902 553.507 53.5609 553.201 53.7021C552.896 53.8434 552.668 54.0348 552.518 54.2764C552.372 54.5179 552.299 54.7936 552.299 55.1035C552.299 55.3132 552.342 55.5046 552.429 55.6777C552.52 55.8464 552.659 56.0036 552.846 56.1494C553.037 56.2952 553.279 56.4297 553.57 56.5527C553.867 56.6758 554.22 56.7943 554.63 56.9082C555.195 57.0677 555.683 57.2454 556.093 57.4414C556.503 57.6374 556.84 57.8584 557.104 58.1045C557.373 58.346 557.572 58.6217 557.699 58.9316C557.831 59.237 557.897 59.5833 557.897 59.9707C557.897 60.3763 557.815 60.7432 557.651 61.0713C557.487 61.3994 557.253 61.6797 556.947 61.9121C556.642 62.1445 556.275 62.3245 555.847 62.4521C555.423 62.5752 554.949 62.6367 554.425 62.6367C553.965 62.6367 553.511 62.5729 553.064 62.4453C552.622 62.3177 552.219 62.1263 551.854 61.8711C551.494 61.6159 551.205 61.3014 550.986 60.9277C550.772 60.5495 550.665 60.112 550.665 59.6152H551.978C551.978 59.957 552.044 60.251 552.176 60.4971C552.308 60.7386 552.488 60.9391 552.716 61.0986C552.948 61.2581 553.21 61.3766 553.502 61.4541C553.798 61.527 554.106 61.5635 554.425 61.5635C554.885 61.5635 555.275 61.4997 555.594 61.3721C555.913 61.2445 556.154 61.0622 556.318 60.8252C556.487 60.5882 556.571 60.3079 556.571 59.9844ZM566.08 56.8262V57.8994H560.693V56.8262H566.08ZM560.898 52.5469V62.5H559.579V52.5469H560.898ZM567.229 52.5469V62.5H565.916V52.5469H567.229ZM577.236 57.209V57.8379C577.236 58.5853 577.143 59.2552 576.956 59.8477C576.769 60.4401 576.5 60.9437 576.149 61.3584C575.799 61.7731 575.377 62.0898 574.885 62.3086C574.397 62.5273 573.85 62.6367 573.244 62.6367C572.656 62.6367 572.116 62.5273 571.624 62.3086C571.136 62.0898 570.713 61.7731 570.353 61.3584C569.997 60.9437 569.721 60.4401 569.525 59.8477C569.329 59.2552 569.231 58.5853 569.231 57.8379V57.209C569.231 56.4616 569.327 55.7939 569.519 55.2061C569.715 54.6136 569.99 54.11 570.346 53.6953C570.701 53.276 571.123 52.957 571.61 52.7383C572.103 52.5195 572.643 52.4102 573.23 52.4102C573.837 52.4102 574.383 52.5195 574.871 52.7383C575.363 52.957 575.785 53.276 576.136 53.6953C576.491 54.11 576.762 54.6136 576.949 55.2061C577.141 55.7939 577.236 56.4616 577.236 57.209ZM575.931 57.8379V57.1953C575.931 56.6029 575.869 56.0788 575.746 55.623C575.628 55.1673 575.452 54.7845 575.22 54.4746C574.987 54.1647 574.702 53.93 574.365 53.7705C574.033 53.611 573.654 53.5312 573.23 53.5312C572.82 53.5312 572.449 53.611 572.116 53.7705C571.788 53.93 571.506 54.1647 571.269 54.4746C571.036 54.7845 570.856 55.1673 570.729 55.623C570.601 56.0788 570.537 56.6029 570.537 57.1953V57.8379C570.537 58.4349 570.601 58.9635 570.729 59.4238C570.856 59.8796 571.038 60.2646 571.275 60.5791C571.517 60.889 571.802 61.1237 572.13 61.2832C572.463 61.4427 572.834 61.5225 573.244 61.5225C573.673 61.5225 574.053 61.4427 574.386 61.2832C574.718 61.1237 574.999 60.889 575.227 60.5791C575.459 60.2646 575.634 59.8796 575.753 59.4238C575.871 58.9635 575.931 58.4349 575.931 57.8379ZM582.883 58.5967H580.224V57.5234H582.883C583.398 57.5234 583.815 57.4414 584.134 57.2773C584.453 57.1133 584.685 56.8854 584.831 56.5938C584.981 56.3021 585.057 55.9694 585.057 55.5957C585.057 55.2539 584.981 54.9326 584.831 54.6318C584.685 54.3311 584.453 54.0895 584.134 53.9072C583.815 53.7204 583.398 53.627 582.883 53.627H580.531V62.5H579.212V52.5469H582.883C583.635 52.5469 584.271 52.6768 584.79 52.9365C585.31 53.1963 585.704 53.5563 585.973 54.0166C586.242 54.4723 586.376 54.9941 586.376 55.582C586.376 56.2201 586.242 56.7646 585.973 57.2158C585.704 57.667 585.31 58.0111 584.79 58.248C584.271 58.4805 583.635 58.5967 582.883 58.5967Z" fill="#563075"/>
<path d="M610.656 56.8262V57.8994H605.27V56.8262H610.656ZM605.475 52.5469V62.5H604.155V52.5469H605.475ZM611.805 52.5469V62.5H610.492V52.5469H611.805ZM621.812 57.209V57.8379C621.812 58.5853 621.719 59.2552 621.532 59.8477C621.345 60.4401 621.076 60.9437 620.726 61.3584C620.375 61.7731 619.953 62.0898 619.461 62.3086C618.973 62.5273 618.426 62.6367 617.82 62.6367C617.232 62.6367 616.692 62.5273 616.2 62.3086C615.713 62.0898 615.289 61.7731 614.929 61.3584C614.573 60.9437 614.298 60.4401 614.102 59.8477C613.906 59.2552 613.808 58.5853 613.808 57.8379V57.209C613.808 56.4616 613.903 55.7939 614.095 55.2061C614.291 54.6136 614.566 54.11 614.922 53.6953C615.277 53.276 615.699 52.957 616.187 52.7383C616.679 52.5195 617.219 52.4102 617.807 52.4102C618.413 52.4102 618.96 52.5195 619.447 52.7383C619.939 52.957 620.361 53.276 620.712 53.6953C621.067 54.11 621.339 54.6136 621.525 55.2061C621.717 55.7939 621.812 56.4616 621.812 57.209ZM620.507 57.8379V57.1953C620.507 56.6029 620.445 56.0788 620.322 55.623C620.204 55.1673 620.028 54.7845 619.796 54.4746C619.563 54.1647 619.279 53.93 618.941 53.7705C618.609 53.611 618.23 53.5312 617.807 53.5312C617.396 53.5312 617.025 53.611 616.692 53.7705C616.364 53.93 616.082 54.1647 615.845 54.4746C615.612 54.7845 615.432 55.1673 615.305 55.623C615.177 56.0788 615.113 56.6029 615.113 57.1953V57.8379C615.113 58.4349 615.177 58.9635 615.305 59.4238C615.432 59.8796 615.615 60.2646 615.852 60.5791C616.093 60.889 616.378 61.1237 616.706 61.2832C617.039 61.4427 617.41 61.5225 617.82 61.5225C618.249 61.5225 618.629 61.4427 618.962 61.2832C619.295 61.1237 619.575 60.889 619.803 60.5791C620.035 60.2646 620.211 59.8796 620.329 59.4238C620.448 58.9635 620.507 58.4349 620.507 57.8379ZM626.406 59.4922L628.382 52.5469H629.339L628.785 55.2471L626.659 62.5H625.709L626.406 59.4922ZM624.362 52.5469L625.935 59.3555L626.406 62.5H625.463L623.05 52.5469H624.362ZM631.896 59.3486L633.434 52.5469H634.753L632.347 62.5H631.403L631.896 59.3486ZM629.482 52.5469L631.403 59.4922L632.101 62.5H631.15L629.1 55.2471L628.539 52.5469H629.482ZM643.093 52.5469V62.5H641.794V52.5469H643.093ZM646.292 52.5469V53.627H638.602V52.5469H646.292ZM655.24 57.209V57.8379C655.24 58.5853 655.147 59.2552 654.96 59.8477C654.773 60.4401 654.504 60.9437 654.153 61.3584C653.802 61.7731 653.381 62.0898 652.889 62.3086C652.401 62.5273 651.854 62.6367 651.248 62.6367C650.66 62.6367 650.12 62.5273 649.628 62.3086C649.14 62.0898 648.716 61.7731 648.356 61.3584C648.001 60.9437 647.725 60.4401 647.529 59.8477C647.333 59.2552 647.235 58.5853 647.235 57.8379V57.209C647.235 56.4616 647.331 55.7939 647.522 55.2061C647.718 54.6136 647.994 54.11 648.35 53.6953C648.705 53.276 649.127 52.957 649.614 52.7383C650.106 52.5195 650.646 52.4102 651.234 52.4102C651.84 52.4102 652.387 52.5195 652.875 52.7383C653.367 52.957 653.789 53.276 654.14 53.6953C654.495 54.11 654.766 54.6136 654.953 55.2061C655.145 55.7939 655.24 56.4616 655.24 57.209ZM653.935 57.8379V57.1953C653.935 56.6029 653.873 56.0788 653.75 55.623C653.632 55.1673 653.456 54.7845 653.224 54.4746C652.991 54.1647 652.706 53.93 652.369 53.7705C652.036 53.611 651.658 53.5312 651.234 53.5312C650.824 53.5312 650.453 53.611 650.12 53.7705C649.792 53.93 649.509 54.1647 649.272 54.4746C649.04 54.7845 648.86 55.1673 648.732 55.623C648.605 56.0788 648.541 56.6029 648.541 57.1953V57.8379C648.541 58.4349 648.605 58.9635 648.732 59.4238C648.86 59.8796 649.042 60.2646 649.279 60.5791C649.521 60.889 649.806 61.1237 650.134 61.2832C650.466 61.4427 650.838 61.5225 651.248 61.5225C651.676 61.5225 652.057 61.4427 652.39 61.2832C652.722 61.1237 653.003 60.889 653.23 60.5791C653.463 60.2646 653.638 59.8796 653.757 59.4238C653.875 58.9635 653.935 58.4349 653.935 57.8379Z" fill="#563075"/>
<path d="M847.923 59.4231C845.496 61.8505 842.248 61.8505 839.821 59.4231C837.393 56.9957 837.393 53.748 839.821 51.3206C842.248 48.8931 845.496 48.8931 847.923 51.3206C850.351 53.748 850.351 56.9957 847.923 59.4231ZM847.923 59.4231L854 65.5" stroke="#563075" stroke-linecap="round"/>
<path d="M870 65.5C870 60.1667 886 60.1667 886 65.5M883 54.5C883 57.4455 880.761 60.5 878 60.5C875.239 60.5 873 57.4455 873 54.5C873 51.5545 875.239 49.5 878 49.5C880.761 49.5 883 51.5545 883 54.5Z" stroke="#563075" stroke-linecap="round"/>
<path d="M905 53.5H917M905 53.5L908 61.5H917V53.5M905 53.5L904 49.5H902M917 53.5V51.5M910 64.5C910 65.1627 909.663 65.5 909 65.5C908.337 65.5 908 65.1627 908 64.5C908 63.8373 908.337 63.5 909 63.5C909.663 63.5 910 63.8373 910 64.5ZM918 64.5C918 65.1627 917.663 65.5 917 65.5C916.337 65.5 916 65.1627 916 64.5C916 63.8373 916.337 63.5 917 63.5C917.663 63.5 918 63.8373 918 64.5Z" stroke="#563075" stroke-linecap="round"/>
<defs>
<linearGradient id="paint0_linear_1_3944" x1="109.647" y1="54.378" x2="26.8856" y2="54.378" gradientUnits="userSpaceOnUse">
<stop stop-color="#FFAA11"/>
<stop offset="1" stop-color="#EB491D"/>
</linearGradient>
<linearGradient id="paint1_linear_1_3944" x1="109.647" y1="54.378" x2="26.8856" y2="54.378" gradientUnits="userSpaceOnUse">
<stop stop-color="#FFAA11"/>
<stop offset="1" stop-color="#EB491D"/>
</linearGradient>
<linearGradient id="paint2_linear_1_3944" x1="109.647" y1="54.378" x2="26.8856" y2="54.378" gradientUnits="userSpaceOnUse">
<stop stop-color="#FFAA11"/>
<stop offset="1" stop-color="#EB491D"/>
</linearGradient>
<linearGradient id="paint3_linear_1_3944" x1="109.647" y1="54.378" x2="26.8856" y2="54.378" gradientUnits="userSpaceOnUse">
<stop stop-color="#FFAA11"/>
<stop offset="1" stop-color="#EB491D"/>
</linearGradient>
<linearGradient id="paint4_linear_1_3944" x1="109.647" y1="54.378" x2="26.8856" y2="54.378" gradientUnits="userSpaceOnUse">
<stop stop-color="#FFAA11"/>
<stop offset="1" stop-color="#EB491D"/>
</linearGradient>
<linearGradient id="paint5_linear_1_3944" x1="109.647" y1="54.378" x2="26.8856" y2="54.378" gradientUnits="userSpaceOnUse">
<stop stop-color="#FFAA11"/>
<stop offset="1" stop-color="#EB491D"/>
</linearGradient>
<linearGradient id="paint6_linear_1_3944" x1="109.647" y1="54.378" x2="26.8856" y2="54.378" gradientUnits="userSpaceOnUse">
<stop stop-color="#FFAA11"/>
<stop offset="1" stop-color="#EB491D"/>
</linearGradient>
<linearGradient id="paint7_linear_1_3944" x1="109.647" y1="54.378" x2="26.8856" y2="54.378" gradientUnits="userSpaceOnUse">
<stop stop-color="#FFAA11"/>
<stop offset="1" stop-color="#EB491D"/>
</linearGradient>
<linearGradient id="paint8_linear_1_3944" x1="109.647" y1="54.378" x2="26.8856" y2="54.378" gradientUnits="userSpaceOnUse">
<stop stop-color="#FFAA11"/>
<stop offset="1" stop-color="#EB491D"/>
</linearGradient>
<linearGradient id="paint9_linear_1_3944" x1="88.0159" y1="45.5" x2="39.0383" y2="81.4285" gradientUnits="userSpaceOnUse">
<stop stop-color="#EB491D"/>
<stop offset="1" stop-color="#FFAA11"/>
</linearGradient>
<clipPath id="clip0_1_3944">
<rect width="172" height="52" fill="white" transform="translate(112 31.5)"/>
</clipPath>
</defs>
</svg>
