<svg width="244" height="67" viewBox="0 0 244 67" fill="none" xmlns="http://www.w3.org/2000/svg">
<path d="M2 34.5C-4.48779 52.5 11.5135 63.5 19 65.5C-4.46207 42.5 25.5074 37.5 29 21.5C30.6759 13.8226 28.6641 5 27 1.5C21.0115 23.5 7.22627 20 2 34.5Z" fill="url(#paint0_linear_2_8110)"/>
<path d="M16 45.5C13.8549 49.9311 12.5176 59 24 65.5C14.0153 48 35.2714 48 38 35.5C39.6759 27.8226 38.6641 22 37 18.5C29.5094 40 20.9924 35.1875 16 45.5Z" fill="url(#paint1_linear_2_8110)"/>
<path d="M8 15.5C8 16.0523 7.55144 16.5 7 16.5C6.44856 16.5 6 16.0523 6 15.5C6 14.9477 6.44856 14.5 7 14.5C7.55144 14.5 8 14.9477 8 15.5Z" fill="url(#paint2_linear_2_8110)"/>
<path d="M8 19.5C8 20.0523 7.55144 20.5 7 20.5C6.44856 20.5 6 20.0523 6 19.5C6 18.9477 6.44856 18.5 7 18.5C7.55144 18.5 8 18.9477 8 19.5Z" fill="url(#paint3_linear_2_8110)"/>
<path d="M8 23.5C8 24.0523 7.55144 24.5 7 24.5C6.44856 24.5 6 24.0523 6 23.5C6 22.9477 6.44856 22.5 7 22.5C7.55144 22.5 8 22.9477 8 23.5Z" fill="url(#paint4_linear_2_8110)"/>
<path d="M8 32.5C8 33.0523 7.55144 33.5 7 33.5C6.44856 33.5 6 33.0523 6 32.5C6 31.9477 6.44856 31.5 7 31.5C7.55144 31.5 8 31.9477 8 32.5Z" fill="url(#paint5_linear_2_8110)"/>
<path d="M26 57.5L31 54.5V65.5H26V57.5Z" fill="url(#paint6_linear_2_8110)"/>
<path d="M34 53.5L39 50.5V65.5H34V53.5Z" fill="url(#paint7_linear_2_8110)"/>
<path d="M42 36.5L47 33.5V65.5H42V36.5Z" fill="url(#paint8_linear_2_8110)"/>
<path d="M0 55.5V54.5C23.9746 45.4539 27.9735 43.9881 48 21.5V22.5C31.4768 41.4887 24.4719 46.9506 0 55.5Z" fill="url(#paint9_linear_2_8110)"/>
<g clip-path="url(#clip0_2_8110)">
<path d="M74.1055 39.5V15.4375H78.6445C79.6107 15.4375 80.3854 15.6016 80.9688 15.9297C81.5521 16.2578 81.9896 16.7272 82.2812 17.3379C82.582 17.9486 82.778 18.6823 82.8691 19.5391C82.9694 20.3867 83.0195 21.3301 83.0195 22.3691V22.6836C83.0195 24.3242 82.8965 25.6914 82.6504 26.7852C82.4134 27.8789 81.9759 28.6992 81.3379 29.2461C80.6999 29.793 79.7839 30.0664 78.5898 30.0664H76.5801V39.5H74.1055ZM76.5801 27.9883H78.4941C79.0592 27.9883 79.4876 27.8242 79.7793 27.4961C80.071 27.168 80.2715 26.6211 80.3809 25.8555C80.4902 25.0807 80.5449 24.028 80.5449 22.6973V22.2324C80.554 20.5918 80.4355 19.3841 80.1895 18.6094C79.9434 17.8255 79.4056 17.4336 78.5762 17.4336H76.5801V27.9883ZM85.9147 39.5V15.4375H90.5358C91.8118 15.4375 92.7552 15.6562 93.3659 16.0938C93.9765 16.5221 94.373 17.1829 94.5553 18.0762C94.7376 18.9694 94.8287 20.1042 94.8287 21.4805C94.8287 22.9935 94.6738 24.2012 94.3639 25.1035C94.054 26.0059 93.4707 26.5801 92.6139 26.8262C93.0696 26.8991 93.4388 27.0951 93.7213 27.4141C94.013 27.724 94.2363 28.2253 94.3912 28.918C94.5553 29.6107 94.6692 30.5495 94.733 31.7344C94.7968 32.9102 94.8287 34.4049 94.8287 36.2188C94.8287 36.401 94.8287 36.6107 94.8287 36.8477C94.8287 37.0846 94.8333 37.3307 94.8424 37.5859C94.8515 37.8411 94.8652 38.0918 94.8834 38.3379C94.9017 38.5749 94.9245 38.7936 94.9518 38.9941C94.9883 39.1947 95.0293 39.3633 95.0748 39.5H92.6139C92.5683 39.4089 92.5319 39.2539 92.5045 39.0352C92.4772 38.8073 92.4498 38.502 92.4225 38.1191C92.4043 37.7272 92.3906 37.235 92.3815 36.6426C92.3724 36.0501 92.3678 35.3392 92.3678 34.5098C92.3678 33.6803 92.3678 32.7142 92.3678 31.6113C92.3678 30.6178 92.3314 29.8613 92.2584 29.3418C92.1946 28.8132 92.0169 28.4486 91.7252 28.248C91.4336 28.0475 90.9551 27.9245 90.2897 27.8789L88.3893 27.7695V39.5H85.9147ZM88.3756 26.0059H90.3307C90.8776 26.0059 91.2968 25.9056 91.5885 25.7051C91.8893 25.4954 92.0944 25.0671 92.2037 24.4199C92.3131 23.7728 92.3678 22.7884 92.3678 21.4668V21.2891C92.3678 20.1953 92.3177 19.375 92.2174 18.8281C92.1172 18.2721 91.9258 17.903 91.6432 17.7207C91.3607 17.5293 90.9414 17.4336 90.3854 17.4336H88.3756V26.0059ZM102.591 39.7734C101.406 39.7734 100.481 39.5091 99.8157 38.9805C99.1595 38.4518 98.6992 37.6497 98.4348 36.5742C98.1705 35.4987 98.0384 34.1406 98.0384 32.5V22.0547C98.0384 20.6693 98.1568 19.4616 98.3938 18.4316C98.6308 17.3926 99.082 16.5859 99.7473 16.0117C100.413 15.4284 101.388 15.1367 102.673 15.1367C103.639 15.1367 104.414 15.3008 104.997 15.6289C105.581 15.957 106.023 16.4264 106.324 17.0371C106.624 17.6478 106.825 18.377 106.925 19.2246C107.034 20.0723 107.089 21.0156 107.089 22.0547V32.5C107.089 34.1406 106.962 35.4987 106.706 36.5742C106.451 37.6497 105.995 38.4518 105.339 38.9805C104.692 39.5091 103.776 39.7734 102.591 39.7734ZM102.591 37.6816C103.138 37.6816 103.557 37.5267 103.849 37.2168C104.141 36.8978 104.341 36.3646 104.45 35.6172C104.56 34.8607 104.615 33.8262 104.615 32.5137V21.8906C104.615 20.2865 104.491 19.1107 104.245 18.3633C104.008 17.6159 103.484 17.2422 102.673 17.2422C101.825 17.2422 101.251 17.6159 100.95 18.3633C100.659 19.1107 100.513 20.2819 100.513 21.877V32.5137C100.513 33.8262 100.568 34.8607 100.677 35.6172C100.786 36.3646 100.991 36.8978 101.292 37.2168C101.593 37.5267 102.026 37.6816 102.591 37.6816ZM110.818 39.5V15.4375H113.635L117.381 35.1113L120.976 15.4375H123.807V39.5H121.646V29.8613L121.906 20.5508L118.365 39.2676H116.383L112.705 20.5508L112.978 29.8613V39.5H110.818ZM127.85 39.5V15.4375H134.672V17.4473H130.325V26.1973H134.426V28.248H130.325V37.4766H134.672V39.5H127.85ZM138.607 39.5V17.4473H136.023V15.4375H143.446V17.4473H141.068V39.5H138.607ZM145.726 39.5V15.4375H148.201V25.7871H152.303V15.4375H154.777V39.5H152.303V27.7559H148.201V39.5H145.726ZM158.848 39.5V15.4375H165.67V17.4473H161.323V26.1973H165.424V28.248H161.323V37.4766H165.67V39.5H158.848ZM173.118 39.7871C171.961 39.7871 171.049 39.5547 170.384 39.0898C169.728 38.6159 169.263 37.9004 168.989 36.9434C168.716 35.9863 168.579 34.7786 168.579 33.3203V15.4375H171.054V33.252C171.054 34.1908 171.086 34.9974 171.15 35.6719C171.222 36.3372 171.405 36.8431 171.696 37.1895C171.988 37.5358 172.462 37.709 173.118 37.709C173.793 37.709 174.271 37.5358 174.554 37.1895C174.836 36.8431 175.005 36.3372 175.06 35.6719C175.123 35.0065 175.155 34.2044 175.155 33.2656V15.4375H177.616V33.3203C177.616 34.7786 177.484 35.9863 177.22 36.9434C176.956 37.9004 176.495 38.6159 175.839 39.0898C175.192 39.5547 174.285 39.7871 173.118 39.7871ZM185.119 39.7734C184.153 39.7734 183.373 39.5911 182.781 39.2266C182.198 38.8529 181.756 38.3379 181.455 37.6816C181.154 37.0163 180.949 36.2415 180.84 35.3574C180.739 34.4733 180.689 33.5072 180.689 32.459V30.0527H183.095V32.5C183.095 34.3503 183.228 35.681 183.492 36.4922C183.756 37.2943 184.326 37.6953 185.201 37.6953C185.802 37.6953 186.24 37.5495 186.513 37.2578C186.787 36.9661 186.96 36.5059 187.033 35.877C187.106 35.2389 187.142 34.4095 187.142 33.3887C187.142 32.2402 186.969 31.2832 186.623 30.5176C186.276 29.7428 185.73 29 184.982 28.2891L183.478 26.8262C183.032 26.3887 182.58 25.901 182.125 25.3633C181.669 24.8255 181.286 24.2057 180.976 23.5039C180.676 22.793 180.525 21.9818 180.525 21.0703C180.525 19.8854 180.639 18.8509 180.867 17.9668C181.104 17.0736 181.546 16.3809 182.193 15.8887C182.84 15.3874 183.775 15.1367 184.996 15.1367C185.98 15.1367 186.755 15.3145 187.32 15.6699C187.894 16.0254 188.314 16.5267 188.578 17.1738C188.851 17.8118 189.025 18.5684 189.097 19.4434C189.179 20.3184 189.22 21.2754 189.22 22.3145V23.709H186.91V22.1367C186.91 20.9427 186.86 19.9902 186.76 19.2793C186.659 18.5592 186.472 18.0397 186.199 17.7207C185.935 17.3926 185.538 17.2285 185.01 17.2285C184.526 17.2285 184.13 17.3379 183.82 17.5566C183.51 17.7754 183.287 18.14 183.15 18.6504C183.013 19.1517 182.945 19.8444 182.945 20.7285C182.945 21.4303 183.027 22 183.191 22.4375C183.355 22.875 183.601 23.2806 183.929 23.6543C184.267 24.0189 184.677 24.4518 185.16 24.9531L186.664 26.498C187.548 27.4004 188.259 28.403 188.797 29.5059C189.334 30.5996 189.603 31.9121 189.603 33.4434C189.603 34.7194 189.485 35.8359 189.248 36.793C189.011 37.7409 188.569 38.4746 187.922 38.9941C187.284 39.5137 186.349 39.7734 185.119 39.7734ZM203.515 39.5V34.8379H197.978V33.1426L203.269 15.4375H205.757V32.8828H207.794V34.8379H205.757V39.5H203.515ZM200.015 32.8828H203.515V19.8535L200.015 32.8828ZM215.198 39.5L218.944 15.4375H221.76L225.875 39.5H223.524L222.785 34.7422H218.219L217.549 39.5H215.198ZM218.52 32.8008H222.471L220.434 19.6348H220.393L218.52 32.8008ZM228.456 39.5V15.4375H230.931V39.5H228.456ZM233.58 39.5L236.916 26.8398L233.73 15.4375H235.945L238.269 23.9004L240.402 15.4375H242.576L239.363 27.8105L242.617 39.5H240.443L238.009 30.75L235.767 39.5H233.58Z" fill="#6811AC"/>
<path d="M93.3086 57.5V48.7109H94.6562V49.6719C94.7344 49.3906 94.9004 49.1426 95.1543 48.9277C95.4082 48.709 95.7148 48.5996 96.0742 48.5996C96.543 48.5996 96.9004 48.7617 97.1465 49.0859C97.3965 49.4102 97.5215 49.8906 97.5215 50.5273V57.5H96.1738V50.5742C96.1738 50.2852 96.1094 50.0703 95.9805 49.9297C95.8516 49.7852 95.6816 49.7129 95.4707 49.7129C95.3105 49.7129 95.168 49.752 95.043 49.8301C94.918 49.9082 94.8223 50.0234 94.7559 50.1758C94.6895 50.3242 94.6562 50.5098 94.6562 50.7324V57.5H93.3086ZM107.025 57.6055C106.596 57.6055 106.246 57.5332 105.977 57.3887C105.711 57.2441 105.506 57.0391 105.361 56.7734C105.221 56.5039 105.123 56.1816 105.068 55.8066C105.018 55.4316 104.992 55.0156 104.992 54.5586V51.377C104.992 50.9668 105.027 50.5918 105.098 50.252C105.168 49.9121 105.281 49.6191 105.438 49.373C105.598 49.127 105.812 48.9375 106.082 48.8047C106.352 48.6719 106.686 48.6055 107.084 48.6055C107.49 48.6055 107.822 48.6738 108.08 48.8105C108.338 48.9434 108.535 49.1348 108.672 49.3848C108.812 49.6309 108.91 49.9277 108.965 50.2754C109.02 50.6191 109.047 51.002 109.047 51.4238V53.1758H106.352V54.916C106.352 55.416 106.387 55.8047 106.457 56.082C106.531 56.3594 106.729 56.498 107.049 56.498C107.26 56.498 107.41 56.4336 107.5 56.3047C107.594 56.1719 107.65 55.9883 107.67 55.7539C107.689 55.5156 107.699 55.2402 107.699 54.9277V54.1895H109.029V54.6055C109.029 55.0664 109.006 55.4824 108.959 55.8535C108.912 56.2246 108.82 56.541 108.684 56.8027C108.551 57.0605 108.352 57.2598 108.086 57.4004C107.82 57.5371 107.467 57.6055 107.025 57.6055ZM106.346 52.3203H107.699V51.1953C107.699 50.8711 107.686 50.5977 107.658 50.375C107.635 50.1484 107.58 49.9785 107.494 49.8652C107.408 49.752 107.27 49.6953 107.078 49.6953C106.859 49.6953 106.697 49.7617 106.592 49.8945C106.486 50.0273 106.418 50.209 106.387 50.4395C106.359 50.6699 106.346 50.9355 106.346 51.2363V52.3203ZM117.174 57.5L115.902 48.7109H117.15L117.789 53.5684L118.006 55.6602H118.082L118.27 53.5625L118.826 48.7109H120.068L118.791 57.5H117.174ZM129.08 57.6055C128.65 57.6055 128.301 57.5332 128.031 57.3887C127.766 57.2441 127.561 57.0391 127.416 56.7734C127.275 56.5039 127.178 56.1816 127.123 55.8066C127.072 55.4316 127.047 55.0156 127.047 54.5586V51.377C127.047 50.9668 127.082 50.5918 127.152 50.252C127.223 49.9121 127.336 49.6191 127.492 49.373C127.652 49.127 127.867 48.9375 128.137 48.8047C128.406 48.6719 128.74 48.6055 129.139 48.6055C129.545 48.6055 129.877 48.6738 130.135 48.8105C130.393 48.9434 130.59 49.1348 130.727 49.3848C130.867 49.6309 130.965 49.9277 131.02 50.2754C131.074 50.6191 131.102 51.002 131.102 51.4238V53.1758H128.406V54.916C128.406 55.416 128.441 55.8047 128.512 56.082C128.586 56.3594 128.783 56.498 129.104 56.498C129.314 56.498 129.465 56.4336 129.555 56.3047C129.648 56.1719 129.705 55.9883 129.725 55.7539C129.744 55.5156 129.754 55.2402 129.754 54.9277V54.1895H131.084V54.6055C131.084 55.0664 131.061 55.4824 131.014 55.8535C130.967 56.2246 130.875 56.541 130.738 56.8027C130.605 57.0605 130.406 57.2598 130.141 57.4004C129.875 57.5371 129.521 57.6055 129.08 57.6055ZM128.4 52.3203H129.754V51.1953C129.754 50.8711 129.74 50.5977 129.713 50.375C129.689 50.1484 129.635 49.9785 129.549 49.8652C129.463 49.752 129.324 49.6953 129.133 49.6953C128.914 49.6953 128.752 49.7617 128.646 49.8945C128.541 50.0273 128.473 50.209 128.441 50.4395C128.414 50.6699 128.4 50.9355 128.4 51.2363V52.3203ZM138.502 57.5V48.7109H139.855V49.6895C139.957 49.3496 140.133 49.084 140.383 48.8926C140.637 48.7012 140.959 48.6055 141.35 48.6055C141.357 48.6055 141.361 48.6641 141.361 48.7812C141.365 48.8945 141.367 49.0254 141.367 49.1738C141.367 49.3223 141.367 49.4551 141.367 49.5723C141.367 49.6895 141.367 49.748 141.367 49.748C141.184 49.748 140.992 49.7695 140.793 49.8125C140.598 49.8555 140.416 49.9277 140.248 50.0293C140.084 50.127 139.953 50.2598 139.855 50.4277V57.5H138.502ZM156.977 57.5V48.7109H158.324V49.6426C158.406 49.3496 158.562 49.1035 158.793 48.9043C159.027 48.7012 159.334 48.5996 159.713 48.5996C160.006 48.5996 160.26 48.6699 160.475 48.8105C160.693 48.9473 160.861 49.1738 160.979 49.4902C161.123 49.2207 161.32 49.0059 161.57 48.8457C161.82 48.6816 162.119 48.5996 162.467 48.5996C162.975 48.5996 163.35 48.7773 163.592 49.1328C163.834 49.4844 163.955 49.9902 163.955 50.6504V57.5H162.607V50.6211C162.607 50.2969 162.547 50.0684 162.426 49.9355C162.309 49.8027 162.15 49.7363 161.951 49.7363C161.678 49.7363 161.475 49.8105 161.342 49.959C161.209 50.1035 161.143 50.3418 161.143 50.6738V57.5H159.789V50.6094C159.789 50.3203 159.734 50.1035 159.625 49.959C159.52 49.8105 159.361 49.7363 159.15 49.7363C158.869 49.7363 158.66 49.834 158.523 50.0293C158.391 50.2207 158.324 50.4648 158.324 50.7617V57.5H156.977ZM171.578 57.5V48.7109H172.926V57.5H171.578ZM171.572 47.9023V46.6953H172.926V47.9023H171.572ZM182.307 57.6172C181.646 57.6172 181.15 57.418 180.818 57.0195C180.486 56.6211 180.32 55.9668 180.32 55.0566V54.4355H181.609V55.1152C181.609 55.5605 181.66 55.9004 181.762 56.1348C181.863 56.3691 182.029 56.4863 182.26 56.4863C182.486 56.4863 182.654 56.4121 182.764 56.2637C182.873 56.1113 182.928 55.8457 182.928 55.4668C182.928 55.2637 182.896 55.0645 182.834 54.8691C182.775 54.6738 182.684 54.4805 182.559 54.2891C182.434 54.0977 182.273 53.9102 182.078 53.7266L181.381 53.082C181.014 52.7383 180.736 52.3711 180.549 51.9805C180.361 51.5898 180.268 51.166 180.268 50.709C180.268 49.9863 180.438 49.4551 180.777 49.1152C181.121 48.7754 181.607 48.6055 182.236 48.6055C182.65 48.6055 182.996 48.6914 183.273 48.8633C183.555 49.0312 183.766 49.3086 183.906 49.6953C184.047 50.082 184.117 50.6055 184.117 51.2656V51.7109H182.875V51.1133C182.875 50.668 182.828 50.3281 182.734 50.0938C182.641 49.8555 182.479 49.7363 182.248 49.7363C182.021 49.7363 181.854 49.8008 181.744 49.9297C181.635 50.0586 181.574 50.291 181.562 50.627C181.559 50.7988 181.58 50.9727 181.627 51.1484C181.678 51.3242 181.758 51.4961 181.867 51.6641C181.977 51.832 182.117 51.9961 182.289 52.1562L183.01 52.8184C183.432 53.2051 183.746 53.6152 183.953 54.0488C184.164 54.4824 184.27 54.9434 184.27 55.4316C184.27 56.127 184.109 56.666 183.789 57.0488C183.473 57.4277 182.979 57.6172 182.307 57.6172ZM193.158 57.6172C192.498 57.6172 192.002 57.418 191.67 57.0195C191.338 56.6211 191.172 55.9668 191.172 55.0566V54.4355H192.461V55.1152C192.461 55.5605 192.512 55.9004 192.613 56.1348C192.715 56.3691 192.881 56.4863 193.111 56.4863C193.338 56.4863 193.506 56.4121 193.615 56.2637C193.725 56.1113 193.779 55.8457 193.779 55.4668C193.779 55.2637 193.748 55.0645 193.686 54.8691C193.627 54.6738 193.535 54.4805 193.41 54.2891C193.285 54.0977 193.125 53.9102 192.93 53.7266L192.232 53.082C191.865 52.7383 191.588 52.3711 191.4 51.9805C191.213 51.5898 191.119 51.166 191.119 50.709C191.119 49.9863 191.289 49.4551 191.629 49.1152C191.973 48.7754 192.459 48.6055 193.088 48.6055C193.502 48.6055 193.848 48.6914 194.125 48.8633C194.406 49.0312 194.617 49.3086 194.758 49.6953C194.898 50.082 194.969 50.6055 194.969 51.2656V51.7109H193.727V51.1133C193.727 50.668 193.68 50.3281 193.586 50.0938C193.492 49.8555 193.33 49.7363 193.1 49.7363C192.873 49.7363 192.705 49.8008 192.596 49.9297C192.486 50.0586 192.426 50.291 192.414 50.627C192.41 50.7988 192.432 50.9727 192.479 51.1484C192.529 51.3242 192.609 51.4961 192.719 51.6641C192.828 51.832 192.969 51.9961 193.141 52.1562L193.861 52.8184C194.283 53.2051 194.598 53.6152 194.805 54.0488C195.016 54.4824 195.121 54.9434 195.121 55.4316C195.121 56.127 194.961 56.666 194.641 57.0488C194.324 57.4277 193.83 57.6172 193.158 57.6172ZM210.906 57.5V48.7109H212.254V57.5H210.906ZM210.9 47.9023V46.6953H212.254V47.9023H210.9ZM221.471 57.5527C221.096 57.5527 220.811 57.5078 220.615 57.418C220.424 57.3242 220.293 57.1758 220.223 56.9727C220.152 56.7695 220.117 56.5039 220.117 56.1758V49.8184H219.35V48.8281H220.117V47.1875H221.465V48.8281H222.379V49.8184H221.465V56.0059C221.465 56.1504 221.484 56.2578 221.523 56.3281C221.566 56.3984 221.654 56.4453 221.787 56.4688C221.92 56.4922 222.123 56.5039 222.396 56.5039V57.5527H221.471Z" fill="#EB491D"/>
</g>
<defs>
<linearGradient id="paint0_linear_2_8110" x1="69.6466" y1="30.378" x2="-13.1144" y2="30.378" gradientUnits="userSpaceOnUse">
<stop stop-color="#FFAA11"/>
<stop offset="1" stop-color="#EB491D"/>
</linearGradient>
<linearGradient id="paint1_linear_2_8110" x1="69.6466" y1="30.378" x2="-13.1144" y2="30.378" gradientUnits="userSpaceOnUse">
<stop stop-color="#FFAA11"/>
<stop offset="1" stop-color="#EB491D"/>
</linearGradient>
<linearGradient id="paint2_linear_2_8110" x1="69.6466" y1="30.378" x2="-13.1144" y2="30.378" gradientUnits="userSpaceOnUse">
<stop stop-color="#FFAA11"/>
<stop offset="1" stop-color="#EB491D"/>
</linearGradient>
<linearGradient id="paint3_linear_2_8110" x1="69.6466" y1="30.378" x2="-13.1144" y2="30.378" gradientUnits="userSpaceOnUse">
<stop stop-color="#FFAA11"/>
<stop offset="1" stop-color="#EB491D"/>
</linearGradient>
<linearGradient id="paint4_linear_2_8110" x1="69.6466" y1="30.378" x2="-13.1144" y2="30.378" gradientUnits="userSpaceOnUse">
<stop stop-color="#FFAA11"/>
<stop offset="1" stop-color="#EB491D"/>
</linearGradient>
<linearGradient id="paint5_linear_2_8110" x1="69.6466" y1="30.378" x2="-13.1144" y2="30.378" gradientUnits="userSpaceOnUse">
<stop stop-color="#FFAA11"/>
<stop offset="1" stop-color="#EB491D"/>
</linearGradient>
<linearGradient id="paint6_linear_2_8110" x1="69.6466" y1="30.378" x2="-13.1144" y2="30.378" gradientUnits="userSpaceOnUse">
<stop stop-color="#FFAA11"/>
<stop offset="1" stop-color="#EB491D"/>
</linearGradient>
<linearGradient id="paint7_linear_2_8110" x1="69.6466" y1="30.378" x2="-13.1144" y2="30.378" gradientUnits="userSpaceOnUse">
<stop stop-color="#FFAA11"/>
<stop offset="1" stop-color="#EB491D"/>
</linearGradient>
<linearGradient id="paint8_linear_2_8110" x1="69.6466" y1="30.378" x2="-13.1144" y2="30.378" gradientUnits="userSpaceOnUse">
<stop stop-color="#FFAA11"/>
<stop offset="1" stop-color="#EB491D"/>
</linearGradient>
<linearGradient id="paint9_linear_2_8110" x1="48.0159" y1="21.5" x2="-0.961683" y2="57.4285" gradientUnits="userSpaceOnUse">
<stop stop-color="#EB491D"/>
<stop offset="1" stop-color="#FFAA11"/>
</linearGradient>
<clipPath id="clip0_2_8110">
<rect width="172" height="52" fill="white" transform="translate(72 7.5)"/>
</clipPath>
</defs>
</svg>
