<svg width="244" height="68" viewBox="0 0 244 68" fill="none" xmlns="http://www.w3.org/2000/svg">
<path d="M2 35C-4.48779 53 11.5135 64 19 66C-4.46207 43 25.5074 38 29 22C30.6759 14.3226 28.6641 5.5 27 2C21.0115 24 7.22627 20.5 2 35Z" fill="url(#paint0_linear_132_98)"/>
<path d="M16 46C13.8549 50.4311 12.5176 59.5 24 66C14.0153 48.5 35.2714 48.5 38 36C39.6759 28.3226 38.6641 22.5 37 19C29.5094 40.5 20.9924 35.6875 16 46Z" fill="url(#paint1_linear_132_98)"/>
<path d="M8 16C8 16.5523 7.55144 17 7 17C6.44856 17 6 16.5523 6 16C6 15.4477 6.44856 15 7 15C7.55144 15 8 15.4477 8 16Z" fill="url(#paint2_linear_132_98)"/>
<path d="M8 20C8 20.5523 7.55144 21 7 21C6.44856 21 6 20.5523 6 20C6 19.4477 6.44856 19 7 19C7.55144 19 8 19.4477 8 20Z" fill="url(#paint3_linear_132_98)"/>
<path d="M8 24C8 24.5523 7.55144 25 7 25C6.44856 25 6 24.5523 6 24C6 23.4477 6.44856 23 7 23C7.55144 23 8 23.4477 8 24Z" fill="url(#paint4_linear_132_98)"/>
<path d="M8 33C8 33.5523 7.55144 34 7 34C6.44856 34 6 33.5523 6 33C6 32.4477 6.44856 32 7 32C7.55144 32 8 32.4477 8 33Z" fill="url(#paint5_linear_132_98)"/>
<path d="M26 58L31 55V66H26V58Z" fill="url(#paint6_linear_132_98)"/>
<path d="M34 54L39 51V66H34V54Z" fill="url(#paint7_linear_132_98)"/>
<path d="M42 37L47 34V66H42V37Z" fill="url(#paint8_linear_132_98)"/>
<path d="M0 56V55C23.9746 45.9539 27.9735 44.4881 48 22V23C31.4768 41.9887 24.4719 47.4506 0 56Z" fill="url(#paint9_linear_132_98)"/>
<g clip-path="url(#clip0_132_98)">
<path d="M74.1055 40V15.9375H78.6445C79.6107 15.9375 80.3854 16.1016 80.9688 16.4297C81.5521 16.7578 81.9896 17.2272 82.2812 17.8379C82.582 18.4486 82.778 19.1823 82.8691 20.0391C82.9694 20.8867 83.0195 21.8301 83.0195 22.8691V23.1836C83.0195 24.8242 82.8965 26.1914 82.6504 27.2852C82.4134 28.3789 81.9759 29.1992 81.3379 29.7461C80.6999 30.293 79.7839 30.5664 78.5898 30.5664H76.5801V40H74.1055ZM76.5801 28.4883H78.4941C79.0592 28.4883 79.4876 28.3242 79.7793 27.9961C80.071 27.668 80.2715 27.1211 80.3809 26.3555C80.4902 25.5807 80.5449 24.528 80.5449 23.1973V22.7324C80.554 21.0918 80.4355 19.8841 80.1895 19.1094C79.9434 18.3255 79.4056 17.9336 78.5762 17.9336H76.5801V28.4883ZM85.9147 40V15.9375H90.5358C91.8118 15.9375 92.7552 16.1562 93.3659 16.5938C93.9765 17.0221 94.373 17.6829 94.5553 18.5762C94.7376 19.4694 94.8287 20.6042 94.8287 21.9805C94.8287 23.4935 94.6738 24.7012 94.3639 25.6035C94.054 26.5059 93.4707 27.0801 92.6139 27.3262C93.0696 27.3991 93.4388 27.5951 93.7213 27.9141C94.013 28.224 94.2363 28.7253 94.3912 29.418C94.5553 30.1107 94.6692 31.0495 94.733 32.2344C94.7968 33.4102 94.8287 34.9049 94.8287 36.7188C94.8287 36.901 94.8287 37.1107 94.8287 37.3477C94.8287 37.5846 94.8333 37.8307 94.8424 38.0859C94.8515 38.3411 94.8652 38.5918 94.8834 38.8379C94.9017 39.0749 94.9245 39.2936 94.9518 39.4941C94.9883 39.6947 95.0293 39.8633 95.0748 40H92.6139C92.5683 39.9089 92.5319 39.7539 92.5045 39.5352C92.4772 39.3073 92.4498 39.002 92.4225 38.6191C92.4043 38.2272 92.3906 37.735 92.3815 37.1426C92.3724 36.5501 92.3678 35.8392 92.3678 35.0098C92.3678 34.1803 92.3678 33.2142 92.3678 32.1113C92.3678 31.1178 92.3314 30.3613 92.2584 29.8418C92.1946 29.3132 92.0169 28.9486 91.7252 28.748C91.4336 28.5475 90.9551 28.4245 90.2897 28.3789L88.3893 28.2695V40H85.9147ZM88.3756 26.5059H90.3307C90.8776 26.5059 91.2968 26.4056 91.5885 26.2051C91.8893 25.9954 92.0944 25.5671 92.2037 24.9199C92.3131 24.2728 92.3678 23.2884 92.3678 21.9668V21.7891C92.3678 20.6953 92.3177 19.875 92.2174 19.3281C92.1172 18.7721 91.9258 18.403 91.6432 18.2207C91.3607 18.0293 90.9414 17.9336 90.3854 17.9336H88.3756V26.5059ZM102.591 40.2734C101.406 40.2734 100.481 40.0091 99.8157 39.4805C99.1595 38.9518 98.6992 38.1497 98.4348 37.0742C98.1705 35.9987 98.0384 34.6406 98.0384 33V22.5547C98.0384 21.1693 98.1568 19.9616 98.3938 18.9316C98.6308 17.8926 99.082 17.0859 99.7473 16.5117C100.413 15.9284 101.388 15.6367 102.673 15.6367C103.639 15.6367 104.414 15.8008 104.997 16.1289C105.581 16.457 106.023 16.9264 106.324 17.5371C106.624 18.1478 106.825 18.877 106.925 19.7246C107.034 20.5723 107.089 21.5156 107.089 22.5547V33C107.089 34.6406 106.962 35.9987 106.706 37.0742C106.451 38.1497 105.995 38.9518 105.339 39.4805C104.692 40.0091 103.776 40.2734 102.591 40.2734ZM102.591 38.1816C103.138 38.1816 103.557 38.0267 103.849 37.7168C104.141 37.3978 104.341 36.8646 104.45 36.1172C104.56 35.3607 104.615 34.3262 104.615 33.0137V22.3906C104.615 20.7865 104.491 19.6107 104.245 18.8633C104.008 18.1159 103.484 17.7422 102.673 17.7422C101.825 17.7422 101.251 18.1159 100.95 18.8633C100.659 19.6107 100.513 20.7819 100.513 22.377V33.0137C100.513 34.3262 100.568 35.3607 100.677 36.1172C100.786 36.8646 100.991 37.3978 101.292 37.7168C101.593 38.0267 102.026 38.1816 102.591 38.1816ZM110.818 40V15.9375H113.635L117.381 35.6113L120.976 15.9375H123.807V40H121.646V30.3613L121.906 21.0508L118.365 39.7676H116.383L112.705 21.0508L112.978 30.3613V40H110.818ZM127.85 40V15.9375H134.672V17.9473H130.325V26.6973H134.426V28.748H130.325V37.9766H134.672V40H127.85ZM138.607 40V17.9473H136.023V15.9375H143.446V17.9473H141.068V40H138.607ZM145.726 40V15.9375H148.201V26.2871H152.303V15.9375H154.777V40H152.303V28.2559H148.201V40H145.726ZM158.848 40V15.9375H165.67V17.9473H161.323V26.6973H165.424V28.748H161.323V37.9766H165.67V40H158.848ZM173.118 40.2871C171.961 40.2871 171.049 40.0547 170.384 39.5898C169.728 39.1159 169.263 38.4004 168.989 37.4434C168.716 36.4863 168.579 35.2786 168.579 33.8203V15.9375H171.054V33.752C171.054 34.6908 171.086 35.4974 171.15 36.1719C171.222 36.8372 171.405 37.3431 171.696 37.6895C171.988 38.0358 172.462 38.209 173.118 38.209C173.793 38.209 174.271 38.0358 174.554 37.6895C174.836 37.3431 175.005 36.8372 175.06 36.1719C175.123 35.5065 175.155 34.7044 175.155 33.7656V15.9375H177.616V33.8203C177.616 35.2786 177.484 36.4863 177.22 37.4434C176.956 38.4004 176.495 39.1159 175.839 39.5898C175.192 40.0547 174.285 40.2871 173.118 40.2871ZM185.119 40.2734C184.153 40.2734 183.373 40.0911 182.781 39.7266C182.198 39.3529 181.756 38.8379 181.455 38.1816C181.154 37.5163 180.949 36.7415 180.84 35.8574C180.739 34.9733 180.689 34.0072 180.689 32.959V30.5527H183.095V33C183.095 34.8503 183.228 36.181 183.492 36.9922C183.756 37.7943 184.326 38.1953 185.201 38.1953C185.802 38.1953 186.24 38.0495 186.513 37.7578C186.787 37.4661 186.96 37.0059 187.033 36.377C187.106 35.7389 187.142 34.9095 187.142 33.8887C187.142 32.7402 186.969 31.7832 186.623 31.0176C186.276 30.2428 185.73 29.5 184.982 28.7891L183.478 27.3262C183.032 26.8887 182.58 26.401 182.125 25.8633C181.669 25.3255 181.286 24.7057 180.976 24.0039C180.676 23.293 180.525 22.4818 180.525 21.5703C180.525 20.3854 180.639 19.3509 180.867 18.4668C181.104 17.5736 181.546 16.8809 182.193 16.3887C182.84 15.8874 183.775 15.6367 184.996 15.6367C185.98 15.6367 186.755 15.8145 187.32 16.1699C187.894 16.5254 188.314 17.0267 188.578 17.6738C188.851 18.3118 189.025 19.0684 189.097 19.9434C189.179 20.8184 189.22 21.7754 189.22 22.8145V24.209H186.91V22.6367C186.91 21.4427 186.86 20.4902 186.76 19.7793C186.659 19.0592 186.472 18.5397 186.199 18.2207C185.935 17.8926 185.538 17.7285 185.01 17.7285C184.526 17.7285 184.13 17.8379 183.82 18.0566C183.51 18.2754 183.287 18.64 183.15 19.1504C183.013 19.6517 182.945 20.3444 182.945 21.2285C182.945 21.9303 183.027 22.5 183.191 22.9375C183.355 23.375 183.601 23.7806 183.929 24.1543C184.267 24.5189 184.677 24.9518 185.16 25.4531L186.664 26.998C187.548 27.9004 188.259 28.903 188.797 30.0059C189.334 31.0996 189.603 32.4121 189.603 33.9434C189.603 35.2194 189.485 36.3359 189.248 37.293C189.011 38.2409 188.569 38.9746 187.922 39.4941C187.284 40.0137 186.349 40.2734 185.119 40.2734ZM203.515 40V35.3379H197.978V33.6426L203.269 15.9375H205.757V33.3828H207.794V35.3379H205.757V40H203.515ZM200.015 33.3828H203.515V20.3535L200.015 33.3828ZM215.198 40L218.944 15.9375H221.76L225.875 40H223.524L222.785 35.2422H218.219L217.549 40H215.198ZM218.52 33.3008H222.471L220.434 20.1348H220.393L218.52 33.3008ZM228.456 40V15.9375H230.931V40H228.456ZM233.58 40L236.916 27.3398L233.73 15.9375H235.945L238.269 24.4004L240.402 15.9375H242.576L239.363 28.3105L242.617 40H240.443L238.009 31.25L235.767 40H233.58Z" fill="#6811AC"/>
<path d="M93.3086 58V49.2109H94.6562V50.1719C94.7344 49.8906 94.9004 49.6426 95.1543 49.4277C95.4082 49.209 95.7148 49.0996 96.0742 49.0996C96.543 49.0996 96.9004 49.2617 97.1465 49.5859C97.3965 49.9102 97.5215 50.3906 97.5215 51.0273V58H96.1738V51.0742C96.1738 50.7852 96.1094 50.5703 95.9805 50.4297C95.8516 50.2852 95.6816 50.2129 95.4707 50.2129C95.3105 50.2129 95.168 50.252 95.043 50.3301C94.918 50.4082 94.8223 50.5234 94.7559 50.6758C94.6895 50.8242 94.6562 51.0098 94.6562 51.2324V58H93.3086ZM107.025 58.1055C106.596 58.1055 106.246 58.0332 105.977 57.8887C105.711 57.7441 105.506 57.5391 105.361 57.2734C105.221 57.0039 105.123 56.6816 105.068 56.3066C105.018 55.9316 104.992 55.5156 104.992 55.0586V51.877C104.992 51.4668 105.027 51.0918 105.098 50.752C105.168 50.4121 105.281 50.1191 105.438 49.873C105.598 49.627 105.812 49.4375 106.082 49.3047C106.352 49.1719 106.686 49.1055 107.084 49.1055C107.49 49.1055 107.822 49.1738 108.08 49.3105C108.338 49.4434 108.535 49.6348 108.672 49.8848C108.812 50.1309 108.91 50.4277 108.965 50.7754C109.02 51.1191 109.047 51.502 109.047 51.9238V53.6758H106.352V55.416C106.352 55.916 106.387 56.3047 106.457 56.582C106.531 56.8594 106.729 56.998 107.049 56.998C107.26 56.998 107.41 56.9336 107.5 56.8047C107.594 56.6719 107.65 56.4883 107.67 56.2539C107.689 56.0156 107.699 55.7402 107.699 55.4277V54.6895H109.029V55.1055C109.029 55.5664 109.006 55.9824 108.959 56.3535C108.912 56.7246 108.82 57.041 108.684 57.3027C108.551 57.5605 108.352 57.7598 108.086 57.9004C107.82 58.0371 107.467 58.1055 107.025 58.1055ZM106.346 52.8203H107.699V51.6953C107.699 51.3711 107.686 51.0977 107.658 50.875C107.635 50.6484 107.58 50.4785 107.494 50.3652C107.408 50.252 107.27 50.1953 107.078 50.1953C106.859 50.1953 106.697 50.2617 106.592 50.3945C106.486 50.5273 106.418 50.709 106.387 50.9395C106.359 51.1699 106.346 51.4355 106.346 51.7363V52.8203ZM117.174 58L115.902 49.2109H117.15L117.789 54.0684L118.006 56.1602H118.082L118.27 54.0625L118.826 49.2109H120.068L118.791 58H117.174ZM129.08 58.1055C128.65 58.1055 128.301 58.0332 128.031 57.8887C127.766 57.7441 127.561 57.5391 127.416 57.2734C127.275 57.0039 127.178 56.6816 127.123 56.3066C127.072 55.9316 127.047 55.5156 127.047 55.0586V51.877C127.047 51.4668 127.082 51.0918 127.152 50.752C127.223 50.4121 127.336 50.1191 127.492 49.873C127.652 49.627 127.867 49.4375 128.137 49.3047C128.406 49.1719 128.74 49.1055 129.139 49.1055C129.545 49.1055 129.877 49.1738 130.135 49.3105C130.393 49.4434 130.59 49.6348 130.727 49.8848C130.867 50.1309 130.965 50.4277 131.02 50.7754C131.074 51.1191 131.102 51.502 131.102 51.9238V53.6758H128.406V55.416C128.406 55.916 128.441 56.3047 128.512 56.582C128.586 56.8594 128.783 56.998 129.104 56.998C129.314 56.998 129.465 56.9336 129.555 56.8047C129.648 56.6719 129.705 56.4883 129.725 56.2539C129.744 56.0156 129.754 55.7402 129.754 55.4277V54.6895H131.084V55.1055C131.084 55.5664 131.061 55.9824 131.014 56.3535C130.967 56.7246 130.875 57.041 130.738 57.3027C130.605 57.5605 130.406 57.7598 130.141 57.9004C129.875 58.0371 129.521 58.1055 129.08 58.1055ZM128.4 52.8203H129.754V51.6953C129.754 51.3711 129.74 51.0977 129.713 50.875C129.689 50.6484 129.635 50.4785 129.549 50.3652C129.463 50.252 129.324 50.1953 129.133 50.1953C128.914 50.1953 128.752 50.2617 128.646 50.3945C128.541 50.5273 128.473 50.709 128.441 50.9395C128.414 51.1699 128.4 51.4355 128.4 51.7363V52.8203ZM138.502 58V49.2109H139.855V50.1895C139.957 49.8496 140.133 49.584 140.383 49.3926C140.637 49.2012 140.959 49.1055 141.35 49.1055C141.357 49.1055 141.361 49.1641 141.361 49.2812C141.365 49.3945 141.367 49.5254 141.367 49.6738C141.367 49.8223 141.367 49.9551 141.367 50.0723C141.367 50.1895 141.367 50.248 141.367 50.248C141.184 50.248 140.992 50.2695 140.793 50.3125C140.598 50.3555 140.416 50.4277 140.248 50.5293C140.084 50.627 139.953 50.7598 139.855 50.9277V58H138.502ZM156.977 58V49.2109H158.324V50.1426C158.406 49.8496 158.562 49.6035 158.793 49.4043C159.027 49.2012 159.334 49.0996 159.713 49.0996C160.006 49.0996 160.26 49.1699 160.475 49.3105C160.693 49.4473 160.861 49.6738 160.979 49.9902C161.123 49.7207 161.32 49.5059 161.57 49.3457C161.82 49.1816 162.119 49.0996 162.467 49.0996C162.975 49.0996 163.35 49.2773 163.592 49.6328C163.834 49.9844 163.955 50.4902 163.955 51.1504V58H162.607V51.1211C162.607 50.7969 162.547 50.5684 162.426 50.4355C162.309 50.3027 162.15 50.2363 161.951 50.2363C161.678 50.2363 161.475 50.3105 161.342 50.459C161.209 50.6035 161.143 50.8418 161.143 51.1738V58H159.789V51.1094C159.789 50.8203 159.734 50.6035 159.625 50.459C159.52 50.3105 159.361 50.2363 159.15 50.2363C158.869 50.2363 158.66 50.334 158.523 50.5293C158.391 50.7207 158.324 50.9648 158.324 51.2617V58H156.977ZM171.578 58V49.2109H172.926V58H171.578ZM171.572 48.4023V47.1953H172.926V48.4023H171.572ZM182.307 58.1172C181.646 58.1172 181.15 57.918 180.818 57.5195C180.486 57.1211 180.32 56.4668 180.32 55.5566V54.9355H181.609V55.6152C181.609 56.0605 181.66 56.4004 181.762 56.6348C181.863 56.8691 182.029 56.9863 182.26 56.9863C182.486 56.9863 182.654 56.9121 182.764 56.7637C182.873 56.6113 182.928 56.3457 182.928 55.9668C182.928 55.7637 182.896 55.5645 182.834 55.3691C182.775 55.1738 182.684 54.9805 182.559 54.7891C182.434 54.5977 182.273 54.4102 182.078 54.2266L181.381 53.582C181.014 53.2383 180.736 52.8711 180.549 52.4805C180.361 52.0898 180.268 51.666 180.268 51.209C180.268 50.4863 180.438 49.9551 180.777 49.6152C181.121 49.2754 181.607 49.1055 182.236 49.1055C182.65 49.1055 182.996 49.1914 183.273 49.3633C183.555 49.5312 183.766 49.8086 183.906 50.1953C184.047 50.582 184.117 51.1055 184.117 51.7656V52.2109H182.875V51.6133C182.875 51.168 182.828 50.8281 182.734 50.5938C182.641 50.3555 182.479 50.2363 182.248 50.2363C182.021 50.2363 181.854 50.3008 181.744 50.4297C181.635 50.5586 181.574 50.791 181.562 51.127C181.559 51.2988 181.58 51.4727 181.627 51.6484C181.678 51.8242 181.758 51.9961 181.867 52.1641C181.977 52.332 182.117 52.4961 182.289 52.6562L183.01 53.3184C183.432 53.7051 183.746 54.1152 183.953 54.5488C184.164 54.9824 184.27 55.4434 184.27 55.9316C184.27 56.627 184.109 57.166 183.789 57.5488C183.473 57.9277 182.979 58.1172 182.307 58.1172ZM193.158 58.1172C192.498 58.1172 192.002 57.918 191.67 57.5195C191.338 57.1211 191.172 56.4668 191.172 55.5566V54.9355H192.461V55.6152C192.461 56.0605 192.512 56.4004 192.613 56.6348C192.715 56.8691 192.881 56.9863 193.111 56.9863C193.338 56.9863 193.506 56.9121 193.615 56.7637C193.725 56.6113 193.779 56.3457 193.779 55.9668C193.779 55.7637 193.748 55.5645 193.686 55.3691C193.627 55.1738 193.535 54.9805 193.41 54.7891C193.285 54.5977 193.125 54.4102 192.93 54.2266L192.232 53.582C191.865 53.2383 191.588 52.8711 191.4 52.4805C191.213 52.0898 191.119 51.666 191.119 51.209C191.119 50.4863 191.289 49.9551 191.629 49.6152C191.973 49.2754 192.459 49.1055 193.088 49.1055C193.502 49.1055 193.848 49.1914 194.125 49.3633C194.406 49.5312 194.617 49.8086 194.758 50.1953C194.898 50.582 194.969 51.1055 194.969 51.7656V52.2109H193.727V51.6133C193.727 51.168 193.68 50.8281 193.586 50.5938C193.492 50.3555 193.33 50.2363 193.1 50.2363C192.873 50.2363 192.705 50.3008 192.596 50.4297C192.486 50.5586 192.426 50.791 192.414 51.127C192.41 51.2988 192.432 51.4727 192.479 51.6484C192.529 51.8242 192.609 51.9961 192.719 52.1641C192.828 52.332 192.969 52.4961 193.141 52.6562L193.861 53.3184C194.283 53.7051 194.598 54.1152 194.805 54.5488C195.016 54.9824 195.121 55.4434 195.121 55.9316C195.121 56.627 194.961 57.166 194.641 57.5488C194.324 57.9277 193.83 58.1172 193.158 58.1172ZM210.906 58V49.2109H212.254V58H210.906ZM210.9 48.4023V47.1953H212.254V48.4023H210.9ZM221.471 58.0527C221.096 58.0527 220.811 58.0078 220.615 57.918C220.424 57.8242 220.293 57.6758 220.223 57.4727C220.152 57.2695 220.117 57.0039 220.117 56.6758V50.3184H219.35V49.3281H220.117V47.6875H221.465V49.3281H222.379V50.3184H221.465V56.5059C221.465 56.6504 221.484 56.7578 221.523 56.8281C221.566 56.8984 221.654 56.9453 221.787 56.9688C221.92 56.9922 222.123 57.0039 222.396 57.0039V58.0527H221.471Z" fill="#EB491D"/>
</g>
<defs>
<linearGradient id="paint0_linear_132_98" x1="69.6466" y1="30.878" x2="-13.1144" y2="30.878" gradientUnits="userSpaceOnUse">
<stop stop-color="#FFAA11"/>
<stop offset="1" stop-color="#EB491D"/>
</linearGradient>
<linearGradient id="paint1_linear_132_98" x1="69.6466" y1="30.878" x2="-13.1144" y2="30.878" gradientUnits="userSpaceOnUse">
<stop stop-color="#FFAA11"/>
<stop offset="1" stop-color="#EB491D"/>
</linearGradient>
<linearGradient id="paint2_linear_132_98" x1="69.6466" y1="30.878" x2="-13.1144" y2="30.878" gradientUnits="userSpaceOnUse">
<stop stop-color="#FFAA11"/>
<stop offset="1" stop-color="#EB491D"/>
</linearGradient>
<linearGradient id="paint3_linear_132_98" x1="69.6466" y1="30.878" x2="-13.1144" y2="30.878" gradientUnits="userSpaceOnUse">
<stop stop-color="#FFAA11"/>
<stop offset="1" stop-color="#EB491D"/>
</linearGradient>
<linearGradient id="paint4_linear_132_98" x1="69.6466" y1="30.878" x2="-13.1144" y2="30.878" gradientUnits="userSpaceOnUse">
<stop stop-color="#FFAA11"/>
<stop offset="1" stop-color="#EB491D"/>
</linearGradient>
<linearGradient id="paint5_linear_132_98" x1="69.6466" y1="30.878" x2="-13.1144" y2="30.878" gradientUnits="userSpaceOnUse">
<stop stop-color="#FFAA11"/>
<stop offset="1" stop-color="#EB491D"/>
</linearGradient>
<linearGradient id="paint6_linear_132_98" x1="69.6466" y1="30.878" x2="-13.1144" y2="30.878" gradientUnits="userSpaceOnUse">
<stop stop-color="#FFAA11"/>
<stop offset="1" stop-color="#EB491D"/>
</linearGradient>
<linearGradient id="paint7_linear_132_98" x1="69.6466" y1="30.878" x2="-13.1144" y2="30.878" gradientUnits="userSpaceOnUse">
<stop stop-color="#FFAA11"/>
<stop offset="1" stop-color="#EB491D"/>
</linearGradient>
<linearGradient id="paint8_linear_132_98" x1="69.6466" y1="30.878" x2="-13.1144" y2="30.878" gradientUnits="userSpaceOnUse">
<stop stop-color="#FFAA11"/>
<stop offset="1" stop-color="#EB491D"/>
</linearGradient>
<linearGradient id="paint9_linear_132_98" x1="48.0159" y1="22" x2="-0.961683" y2="57.9285" gradientUnits="userSpaceOnUse">
<stop stop-color="#EB491D"/>
<stop offset="1" stop-color="#FFAA11"/>
</linearGradient>
<clipPath id="clip0_132_98">
<rect width="172" height="52" fill="white" transform="translate(72 8)"/>
</clipPath>
</defs>
</svg>
