<svg width="309" height="68" viewBox="0 0 309 68" fill="none" xmlns="http://www.w3.org/2000/svg">
<path d="M2 35C-4.48779 53 11.5135 64 19 66C-4.46207 43 25.5074 38 29 22C30.6759 14.3226 28.6641 5.5 27 2C21.0115 24 7.22627 20.5 2 35Z" fill="url(#paint0_linear_870_131)"/>
<path d="M16 46C13.8549 50.4311 12.5176 59.5 24 66C14.0153 48.5 35.2714 48.5 38 36C39.6759 28.3226 38.6641 22.5 37 19C29.5094 40.5 20.9924 35.6875 16 46Z" fill="url(#paint1_linear_870_131)"/>
<path d="M8 16C8 16.5523 7.55144 17 7 17C6.44856 17 6 16.5523 6 16C6 15.4477 6.44856 15 7 15C7.55144 15 8 15.4477 8 16Z" fill="url(#paint2_linear_870_131)"/>
<path d="M8 20C8 20.5523 7.55144 21 7 21C6.44856 21 6 20.5523 6 20C6 19.4477 6.44856 19 7 19C7.55144 19 8 19.4477 8 20Z" fill="url(#paint3_linear_870_131)"/>
<path d="M8 24C8 24.5523 7.55144 25 7 25C6.44856 25 6 24.5523 6 24C6 23.4477 6.44856 23 7 23C7.55144 23 8 23.4477 8 24Z" fill="url(#paint4_linear_870_131)"/>
<path d="M8 33C8 33.5523 7.55144 34 7 34C6.44856 34 6 33.5523 6 33C6 32.4477 6.44856 32 7 32C7.55144 32 8 32.4477 8 33Z" fill="url(#paint5_linear_870_131)"/>
<path d="M26 58L31 55V66H26V58Z" fill="url(#paint6_linear_870_131)"/>
<path d="M34 54L39 51V66H34V54Z" fill="url(#paint7_linear_870_131)"/>
<path d="M42 37L47 34V66H42V37Z" fill="url(#paint8_linear_870_131)"/>
<path d="M0 56V55C23.9746 45.9539 27.9735 44.4881 48 22V23C31.4768 41.9887 24.4719 47.4506 0 56Z" fill="url(#paint9_linear_870_131)"/>
<g clip-path="url(#clip0_870_131)">
<path d="M75.2422 46V11.625H81.2188C82.599 11.625 83.6927 11.8724 84.5 12.3672C85.3073 12.849 85.8997 13.5391 86.2773 14.4375C86.668 15.3229 86.9154 16.3776 87.0195 17.6016C87.1367 18.8125 87.1953 20.1471 87.1953 21.6055V21.957C87.1953 24.3529 87.026 26.332 86.6875 27.8945C86.362 29.457 85.7565 30.6224 84.8711 31.3906C83.9857 32.1589 82.7096 32.543 81.043 32.543H78.1523V46H75.2422ZM78.1523 30.082H81.2383C82.0456 30.082 82.6641 29.8346 83.0938 29.3398C83.5365 28.8451 83.8424 28.0117 84.0117 26.8398C84.181 25.6549 84.2656 24.0404 84.2656 21.9961V21.332C84.2786 18.819 84.1029 16.9766 83.7383 15.8047C83.3737 14.6328 82.5859 14.0469 81.375 14.0469H78.1523V30.082ZM91.6047 46V11.625H97.4445C99.2935 11.625 100.648 11.918 101.507 12.5039C102.366 13.0898 102.92 14.0078 103.167 15.2578C103.428 16.5078 103.558 18.1224 103.558 20.1016C103.558 22.3021 103.33 24.0729 102.874 25.4141C102.418 26.7552 101.592 27.5951 100.394 27.9336C101.058 28.0378 101.598 28.3307 102.015 28.8125C102.432 29.2812 102.744 30.056 102.952 31.1367C103.174 32.2044 103.323 33.6823 103.402 35.5703C103.493 37.4583 103.538 39.8672 103.538 42.7969C103.538 43.1094 103.538 43.3893 103.538 43.6367C103.538 43.8711 103.545 44.0859 103.558 44.2812C103.571 44.4766 103.59 44.6654 103.616 44.8477C103.655 45.0169 103.701 45.1992 103.753 45.3945C103.805 45.5768 103.877 45.7786 103.968 46H101.077C100.999 45.8438 100.934 45.6615 100.882 45.4531C100.83 45.2318 100.784 44.9128 100.745 44.4961C100.719 44.0794 100.7 43.4935 100.687 42.7383C100.674 41.9831 100.661 40.987 100.648 39.75C100.648 38.513 100.648 36.9701 100.648 35.1211C100.648 33.5456 100.609 32.3477 100.53 31.5273C100.465 30.707 100.218 30.1406 99.7883 29.8281C99.3716 29.5026 98.6424 29.3073 97.6008 29.2422L94.5148 29.0469V46H91.6047ZM94.4953 27.0938H97.5422C98.3755 27.0938 99.0135 26.9505 99.4562 26.6641C99.912 26.3646 100.224 25.7266 100.394 24.75C100.563 23.7604 100.648 22.237 100.648 20.1797V19.9258C100.648 18.2331 100.57 16.9701 100.413 16.1367C100.27 15.3034 99.9901 14.75 99.5734 14.4766C99.1568 14.1901 98.5513 14.0469 97.757 14.0469H94.4953V27.0938ZM114.471 46.3906C112.817 46.3906 111.548 46.013 110.662 45.2578C109.79 44.5026 109.191 43.3503 108.866 41.8008C108.553 40.2383 108.397 38.2591 108.397 35.8633V21.2344C108.397 19.2552 108.534 17.5104 108.807 16C109.08 14.4896 109.653 13.3112 110.526 12.4648C111.411 11.6055 112.772 11.1758 114.608 11.1758C115.988 11.1758 117.075 11.4232 117.87 11.918C118.664 12.3997 119.243 13.0898 119.608 13.9883C119.985 14.8867 120.226 15.9479 120.33 17.1719C120.435 18.3958 120.487 19.75 120.487 21.2344V35.8633C120.487 38.2591 120.33 40.2383 120.018 41.8008C119.705 43.3503 119.12 44.5026 118.26 45.2578C117.401 46.013 116.138 46.3906 114.471 46.3906ZM114.471 44.0078C115.304 44.0078 115.942 43.7669 116.385 43.2852C116.841 42.8034 117.153 41.9701 117.323 40.7852C117.492 39.6003 117.577 37.9596 117.577 35.8633V21C117.577 18.4089 117.388 16.5339 117.01 15.375C116.646 14.2031 115.845 13.6172 114.608 13.6172C113.306 13.6172 112.427 14.2031 111.971 15.375C111.528 16.5469 111.307 18.4154 111.307 20.9805V35.8633C111.307 37.9596 111.392 39.6003 111.561 40.7852C111.73 41.9701 112.043 42.8034 112.498 43.2852C112.954 43.7669 113.612 44.0078 114.471 44.0078ZM126.205 46V11.625H129.466L134.877 40.4922L140.091 11.625H143.353V46H140.716V31.2734L141.166 17.4258L136.263 45.2578H133.49L128.412 17.4258L128.861 31.2734V46H126.205ZM149.52 46V11.625H158.602V13.8906H152.43V27.3281H158.231V29.6914H152.43V43.6953H158.544V46H149.52ZM164.105 46V13.8906H160.512V11.625H170.219V13.8906H166.996V46H164.105ZM173.691 46V11.625H176.601V26.5078H182.89V11.625H185.8V46H182.89V28.6953H176.601V46H173.691ZM192.084 46V11.625H201.166V13.8906H194.995V27.3281H200.795V29.6914H194.995V43.6953H201.108V46H192.084ZM211.591 46.3906C209.977 46.3906 208.727 46.0586 207.841 45.3945C206.969 44.7174 206.364 43.7018 206.025 42.3477C205.686 40.9805 205.517 39.2552 205.517 37.1719V11.625H208.427V37.0742C208.427 38.5586 208.479 39.8216 208.584 40.8633C208.688 41.8919 208.961 42.6732 209.404 43.207C209.86 43.7409 210.595 44.0078 211.611 44.0078C212.64 44.0078 213.369 43.7409 213.798 43.207C214.228 42.6732 214.482 41.8919 214.56 40.8633C214.651 39.8346 214.697 38.5781 214.697 37.0938V11.625H217.607V37.1719C217.607 39.2552 217.444 40.9805 217.119 42.3477C216.793 43.7018 216.194 44.7174 215.322 45.3945C214.462 46.0586 213.219 46.3906 211.591 46.3906ZM228.345 46.3906C226.977 46.3906 225.89 46.1172 225.083 45.5703C224.289 45.0104 223.696 44.2487 223.305 43.2852C222.915 42.3086 222.661 41.1823 222.544 39.9062C222.427 38.6172 222.368 37.2435 222.368 35.7852V32.2305H225.22V35.7266C225.22 38.6693 225.428 40.7852 225.845 42.0742C226.274 43.3633 227.166 44.0078 228.52 44.0078C229.471 44.0078 230.148 43.7734 230.552 43.3047C230.968 42.8359 231.229 42.1003 231.333 41.0977C231.437 40.0951 231.489 38.7865 231.489 37.1719C231.489 35.401 231.268 33.9753 230.825 32.8945C230.395 31.8008 229.621 30.7396 228.501 29.7109L226.47 27.8359C225.845 27.263 225.193 26.599 224.516 25.8438C223.839 25.0885 223.266 24.2096 222.798 23.207C222.329 22.1914 222.095 21.026 222.095 19.7109C222.095 18.0573 222.238 16.5924 222.524 15.3164C222.824 14.0273 223.403 13.0182 224.262 12.2891C225.135 11.5469 226.437 11.1758 228.169 11.1758C229.575 11.1758 230.669 11.4492 231.45 11.9961C232.231 12.5299 232.791 13.2786 233.13 14.2422C233.481 15.2057 233.696 16.3255 233.774 17.6016C233.852 18.8776 233.891 20.2578 233.891 21.7422V23.6758H231.294V21.5273C231.294 19.418 231.196 17.7969 231.001 16.6641C230.818 15.5182 230.506 14.724 230.063 14.2812C229.621 13.8385 229.002 13.6172 228.208 13.6172C227.453 13.6172 226.834 13.7669 226.352 14.0664C225.884 14.3659 225.539 14.9193 225.317 15.7266C225.109 16.5208 225.005 17.6862 225.005 19.2227C225.005 20.3164 225.128 21.2018 225.376 21.8789C225.623 22.543 226.001 23.1484 226.509 23.6953C227.016 24.2422 227.648 24.8932 228.403 25.6484L230.298 27.5234C231.6 28.7995 232.615 30.2122 233.345 31.7617C234.087 33.3112 234.458 35.2188 234.458 37.4844C234.458 39.2292 234.308 40.7721 234.009 42.1133C233.709 43.4544 233.123 44.5026 232.251 45.2578C231.378 46.013 230.076 46.3906 228.345 46.3906ZM253.882 46V39.125H246.265V37.2305L253.706 11.625H256.519V36.8594H259.527V39.125H256.519V46H253.882ZM248.648 36.8594H253.882V17.3281L248.648 36.8594ZM269.888 46L275.416 11.625H278.384L284.498 46H281.685L280.552 38.9297H273.677L272.642 46H269.888ZM274.048 36.7617H280.162L276.998 17.1719H276.959L274.048 36.7617ZM288.262 46V11.625H291.173V46H288.262ZM295.289 46L299.84 28.0508L295.582 11.625H298.258L301.559 24.4961L304.723 11.625H307.145L302.809 29.3398L307.086 46H304.488L301.051 32.7188L297.711 46H295.289Z" fill="#6811AB"/>
<path d="M125.809 66V57.2109H127.156V58.1719C127.234 57.8906 127.4 57.6426 127.654 57.4277C127.908 57.209 128.215 57.0996 128.574 57.0996C129.043 57.0996 129.4 57.2617 129.646 57.5859C129.896 57.9102 130.021 58.3906 130.021 59.0273V66H128.674V59.0742C128.674 58.7852 128.609 58.5703 128.48 58.4297C128.352 58.2852 128.182 58.2129 127.971 58.2129C127.811 58.2129 127.668 58.252 127.543 58.3301C127.418 58.4082 127.322 58.5234 127.256 58.6758C127.189 58.8242 127.156 59.0098 127.156 59.2324V66H125.809ZM139.525 66.1055C139.096 66.1055 138.746 66.0332 138.477 65.8887C138.211 65.7441 138.006 65.5391 137.861 65.2734C137.721 65.0039 137.623 64.6816 137.568 64.3066C137.518 63.9316 137.492 63.5156 137.492 63.0586V59.877C137.492 59.4668 137.527 59.0918 137.598 58.752C137.668 58.4121 137.781 58.1191 137.938 57.873C138.098 57.627 138.312 57.4375 138.582 57.3047C138.852 57.1719 139.186 57.1055 139.584 57.1055C139.99 57.1055 140.322 57.1738 140.58 57.3105C140.838 57.4434 141.035 57.6348 141.172 57.8848C141.312 58.1309 141.41 58.4277 141.465 58.7754C141.52 59.1191 141.547 59.502 141.547 59.9238V61.6758H138.852V63.416C138.852 63.916 138.887 64.3047 138.957 64.582C139.031 64.8594 139.229 64.998 139.549 64.998C139.76 64.998 139.91 64.9336 140 64.8047C140.094 64.6719 140.15 64.4883 140.17 64.2539C140.189 64.0156 140.199 63.7402 140.199 63.4277V62.6895H141.529V63.1055C141.529 63.5664 141.506 63.9824 141.459 64.3535C141.412 64.7246 141.32 65.041 141.184 65.3027C141.051 65.5605 140.852 65.7598 140.586 65.9004C140.32 66.0371 139.967 66.1055 139.525 66.1055ZM138.846 60.8203H140.199V59.6953C140.199 59.3711 140.186 59.0977 140.158 58.875C140.135 58.6484 140.08 58.4785 139.994 58.3652C139.908 58.252 139.77 58.1953 139.578 58.1953C139.359 58.1953 139.197 58.2617 139.092 58.3945C138.986 58.5273 138.918 58.709 138.887 58.9395C138.859 59.1699 138.846 59.4355 138.846 59.7363V60.8203ZM149.674 66L148.402 57.2109H149.65L150.289 62.0684L150.506 64.1602H150.582L150.77 62.0625L151.326 57.2109H152.568L151.291 66H149.674ZM161.58 66.1055C161.15 66.1055 160.801 66.0332 160.531 65.8887C160.266 65.7441 160.061 65.5391 159.916 65.2734C159.775 65.0039 159.678 64.6816 159.623 64.3066C159.572 63.9316 159.547 63.5156 159.547 63.0586V59.877C159.547 59.4668 159.582 59.0918 159.652 58.752C159.723 58.4121 159.836 58.1191 159.992 57.873C160.152 57.627 160.367 57.4375 160.637 57.3047C160.906 57.1719 161.24 57.1055 161.639 57.1055C162.045 57.1055 162.377 57.1738 162.635 57.3105C162.893 57.4434 163.09 57.6348 163.227 57.8848C163.367 58.1309 163.465 58.4277 163.52 58.7754C163.574 59.1191 163.602 59.502 163.602 59.9238V61.6758H160.906V63.416C160.906 63.916 160.941 64.3047 161.012 64.582C161.086 64.8594 161.283 64.998 161.604 64.998C161.814 64.998 161.965 64.9336 162.055 64.8047C162.148 64.6719 162.205 64.4883 162.225 64.2539C162.244 64.0156 162.254 63.7402 162.254 63.4277V62.6895H163.584V63.1055C163.584 63.5664 163.561 63.9824 163.514 64.3535C163.467 64.7246 163.375 65.041 163.238 65.3027C163.105 65.5605 162.906 65.7598 162.641 65.9004C162.375 66.0371 162.021 66.1055 161.58 66.1055ZM160.9 60.8203H162.254V59.6953C162.254 59.3711 162.24 59.0977 162.213 58.875C162.189 58.6484 162.135 58.4785 162.049 58.3652C161.963 58.252 161.824 58.1953 161.633 58.1953C161.414 58.1953 161.252 58.2617 161.146 58.3945C161.041 58.5273 160.973 58.709 160.941 58.9395C160.914 59.1699 160.9 59.4355 160.9 59.7363V60.8203ZM171.002 66V57.2109H172.355V58.1895C172.457 57.8496 172.633 57.584 172.883 57.3926C173.137 57.2012 173.459 57.1055 173.85 57.1055C173.857 57.1055 173.861 57.1641 173.861 57.2812C173.865 57.3945 173.867 57.5254 173.867 57.6738C173.867 57.8223 173.867 57.9551 173.867 58.0723C173.867 58.1895 173.867 58.248 173.867 58.248C173.684 58.248 173.492 58.2695 173.293 58.3125C173.098 58.3555 172.916 58.4277 172.748 58.5293C172.584 58.627 172.453 58.7598 172.355 58.9277V66H171.002ZM189.477 66V57.2109H190.824V58.1426C190.906 57.8496 191.062 57.6035 191.293 57.4043C191.527 57.2012 191.834 57.0996 192.213 57.0996C192.506 57.0996 192.76 57.1699 192.975 57.3105C193.193 57.4473 193.361 57.6738 193.479 57.9902C193.623 57.7207 193.82 57.5059 194.07 57.3457C194.32 57.1816 194.619 57.0996 194.967 57.0996C195.475 57.0996 195.85 57.2773 196.092 57.6328C196.334 57.9844 196.455 58.4902 196.455 59.1504V66H195.107V59.1211C195.107 58.7969 195.047 58.5684 194.926 58.4355C194.809 58.3027 194.65 58.2363 194.451 58.2363C194.178 58.2363 193.975 58.3105 193.842 58.459C193.709 58.6035 193.643 58.8418 193.643 59.1738V66H192.289V59.1094C192.289 58.8203 192.234 58.6035 192.125 58.459C192.02 58.3105 191.861 58.2363 191.65 58.2363C191.369 58.2363 191.16 58.334 191.023 58.5293C190.891 58.7207 190.824 58.9648 190.824 59.2617V66H189.477ZM204.078 66V57.2109H205.426V66H204.078ZM204.072 56.4023V55.1953H205.426V56.4023H204.072ZM214.807 66.1172C214.146 66.1172 213.65 65.918 213.318 65.5195C212.986 65.1211 212.82 64.4668 212.82 63.5566V62.9355H214.109V63.6152C214.109 64.0605 214.16 64.4004 214.262 64.6348C214.363 64.8691 214.529 64.9863 214.76 64.9863C214.986 64.9863 215.154 64.9121 215.264 64.7637C215.373 64.6113 215.428 64.3457 215.428 63.9668C215.428 63.7637 215.396 63.5645 215.334 63.3691C215.275 63.1738 215.184 62.9805 215.059 62.7891C214.934 62.5977 214.773 62.4102 214.578 62.2266L213.881 61.582C213.514 61.2383 213.236 60.8711 213.049 60.4805C212.861 60.0898 212.768 59.666 212.768 59.209C212.768 58.4863 212.938 57.9551 213.277 57.6152C213.621 57.2754 214.107 57.1055 214.736 57.1055C215.15 57.1055 215.496 57.1914 215.773 57.3633C216.055 57.5312 216.266 57.8086 216.406 58.1953C216.547 58.582 216.617 59.1055 216.617 59.7656V60.2109H215.375V59.6133C215.375 59.168 215.328 58.8281 215.234 58.5938C215.141 58.3555 214.979 58.2363 214.748 58.2363C214.521 58.2363 214.354 58.3008 214.244 58.4297C214.135 58.5586 214.074 58.791 214.062 59.127C214.059 59.2988 214.08 59.4727 214.127 59.6484C214.178 59.8242 214.258 59.9961 214.367 60.1641C214.477 60.332 214.617 60.4961 214.789 60.6562L215.51 61.3184C215.932 61.7051 216.246 62.1152 216.453 62.5488C216.664 62.9824 216.77 63.4434 216.77 63.9316C216.77 64.627 216.609 65.166 216.289 65.5488C215.973 65.9277 215.479 66.1172 214.807 66.1172ZM225.658 66.1172C224.998 66.1172 224.502 65.918 224.17 65.5195C223.838 65.1211 223.672 64.4668 223.672 63.5566V62.9355H224.961V63.6152C224.961 64.0605 225.012 64.4004 225.113 64.6348C225.215 64.8691 225.381 64.9863 225.611 64.9863C225.838 64.9863 226.006 64.9121 226.115 64.7637C226.225 64.6113 226.279 64.3457 226.279 63.9668C226.279 63.7637 226.248 63.5645 226.186 63.3691C226.127 63.1738 226.035 62.9805 225.91 62.7891C225.785 62.5977 225.625 62.4102 225.43 62.2266L224.732 61.582C224.365 61.2383 224.088 60.8711 223.9 60.4805C223.713 60.0898 223.619 59.666 223.619 59.209C223.619 58.4863 223.789 57.9551 224.129 57.6152C224.473 57.2754 224.959 57.1055 225.588 57.1055C226.002 57.1055 226.348 57.1914 226.625 57.3633C226.906 57.5312 227.117 57.8086 227.258 58.1953C227.398 58.582 227.469 59.1055 227.469 59.7656V60.2109H226.227V59.6133C226.227 59.168 226.18 58.8281 226.086 58.5938C225.992 58.3555 225.83 58.2363 225.6 58.2363C225.373 58.2363 225.205 58.3008 225.096 58.4297C224.986 58.5586 224.926 58.791 224.914 59.127C224.91 59.2988 224.932 59.4727 224.979 59.6484C225.029 59.8242 225.109 59.9961 225.219 60.1641C225.328 60.332 225.469 60.4961 225.641 60.6562L226.361 61.3184C226.783 61.7051 227.098 62.1152 227.305 62.5488C227.516 62.9824 227.621 63.4434 227.621 63.9316C227.621 64.627 227.461 65.166 227.141 65.5488C226.824 65.9277 226.33 66.1172 225.658 66.1172ZM243.406 66V57.2109H244.754V66H243.406ZM243.4 56.4023V55.1953H244.754V56.4023H243.4ZM253.971 66.0527C253.596 66.0527 253.311 66.0078 253.115 65.918C252.924 65.8242 252.793 65.6758 252.723 65.4727C252.652 65.2695 252.617 65.0039 252.617 64.6758V58.3184H251.85V57.3281H252.617V55.6875H253.965V57.3281H254.879V58.3184H253.965V64.5059C253.965 64.6504 253.984 64.7578 254.023 64.8281C254.066 64.8984 254.154 64.9453 254.287 64.9688C254.42 64.9922 254.623 65.0039 254.896 65.0039V66.0527H253.971Z" fill="#EB491D"/>
</g>
<defs>
<linearGradient id="paint0_linear_870_131" x1="69.6466" y1="30.878" x2="-13.1144" y2="30.878" gradientUnits="userSpaceOnUse">
<stop stop-color="#FFAA11"/>
<stop offset="1" stop-color="#EB491D"/>
</linearGradient>
<linearGradient id="paint1_linear_870_131" x1="69.6466" y1="30.878" x2="-13.1144" y2="30.878" gradientUnits="userSpaceOnUse">
<stop stop-color="#FFAA11"/>
<stop offset="1" stop-color="#EB491D"/>
</linearGradient>
<linearGradient id="paint2_linear_870_131" x1="69.6466" y1="30.878" x2="-13.1144" y2="30.878" gradientUnits="userSpaceOnUse">
<stop stop-color="#FFAA11"/>
<stop offset="1" stop-color="#EB491D"/>
</linearGradient>
<linearGradient id="paint3_linear_870_131" x1="69.6466" y1="30.878" x2="-13.1144" y2="30.878" gradientUnits="userSpaceOnUse">
<stop stop-color="#FFAA11"/>
<stop offset="1" stop-color="#EB491D"/>
</linearGradient>
<linearGradient id="paint4_linear_870_131" x1="69.6466" y1="30.878" x2="-13.1144" y2="30.878" gradientUnits="userSpaceOnUse">
<stop stop-color="#FFAA11"/>
<stop offset="1" stop-color="#EB491D"/>
</linearGradient>
<linearGradient id="paint5_linear_870_131" x1="69.6466" y1="30.878" x2="-13.1144" y2="30.878" gradientUnits="userSpaceOnUse">
<stop stop-color="#FFAA11"/>
<stop offset="1" stop-color="#EB491D"/>
</linearGradient>
<linearGradient id="paint6_linear_870_131" x1="69.6466" y1="30.878" x2="-13.1144" y2="30.878" gradientUnits="userSpaceOnUse">
<stop stop-color="#FFAA11"/>
<stop offset="1" stop-color="#EB491D"/>
</linearGradient>
<linearGradient id="paint7_linear_870_131" x1="69.6466" y1="30.878" x2="-13.1144" y2="30.878" gradientUnits="userSpaceOnUse">
<stop stop-color="#FFAA11"/>
<stop offset="1" stop-color="#EB491D"/>
</linearGradient>
<linearGradient id="paint8_linear_870_131" x1="69.6466" y1="30.878" x2="-13.1144" y2="30.878" gradientUnits="userSpaceOnUse">
<stop stop-color="#FFAA11"/>
<stop offset="1" stop-color="#EB491D"/>
</linearGradient>
<linearGradient id="paint9_linear_870_131" x1="48.0159" y1="22" x2="-0.961683" y2="57.9285" gradientUnits="userSpaceOnUse">
<stop stop-color="#EB491D"/>
<stop offset="1" stop-color="#FFAA11"/>
</linearGradient>
<clipPath id="clip0_870_131">
<rect width="237" height="68" fill="white" transform="translate(72)"/>
</clipPath>
</defs>
</svg>
