<svg width="14" height="14" viewBox="0 0 14 14" fill="none" xmlns="http://www.w3.org/2000/svg">
<g id="Frame" clip-path="url(#clip0_243_1474)">
<g id="Vector">
<path d="M9.00031 5.50058H13.0003C13.3378 5.50058 13.7616 5.26112 14.0003 5.50058C14.239 5.74005 14.0003 6.16192 14.0003 6.50058V7.50058C14.0005 7.66745 14.0635 8.34623 14.0003 8.50058L12.0003 13.5006C11.9523 13.6176 12.1052 13.4302 12.0003 13.5006C11.8955 13.5709 11.1264 13.5006 11.0003 13.5006H1.00031C0.831531 13.5006 0.119647 13.6203 0.00030642 13.5006C-0.119035 13.3808 0.00030642 12.6699 0.00030642 12.5006V6.50058C-0.119035 6.62031 0.00030642 6.33125 0.00030642 6.50058C0.119647 6.38085 0.831531 5.50058 1.00031 5.50058H3.00031C2.90984 5.54757 3.10219 5.50061 3.00031 5.50058C2.94153 5.58406 3.09078 5.45359 3.00031 5.50058L7.00031 0.50058C6.92653 0.519204 7.04418 0.438212 7.00031 0.50058C6.93225 0.466463 7.0741 0.481957 7.00031 0.50058L8.00031 1.50058C8.32517 1.66349 8.84924 1.16923 9.00031 1.50058C9.15138 1.83194 9.08991 2.14747 9.00031 2.50058V5.50058ZM4.00031 6.50058V12.5006H11.0003L13.0003 7.50058V6.50058H9.00031C8.80648 6.50055 8.17442 6.58606 8.00031 6.50058C7.8262 6.4151 8.11928 5.65411 8.00031 5.50058C7.88134 5.34704 7.03994 5.69095 7.00031 5.50058C6.96069 5.31022 6.95253 4.68906 7.00031 4.50058L8.00031 2.50058C8.01829 2.42992 8.03053 2.5669 8.00031 2.50058C7.97009 2.43425 8.06533 2.53318 8.00031 2.50058H7.00031L4.00031 6.50058C4.23131 6.36395 3.84122 6.72659 4.00031 6.50058ZM3.00031 7.50058H1.00031V12.5006H3.00031V7.50058Z" fill="#898989"/>
</g>
</g>
<defs>
<clipPath id="clip0_243_1474">
<rect width="14" height="13" fill="white" transform="translate(0 0.5)"/>
</clipPath>
</defs>
</svg>
