<svg width="14" height="14" viewBox="0 0 14 14" fill="none" xmlns="http://www.w3.org/2000/svg">
<g id="Frame" clip-path="url(#clip0_243_1477)">
<g id="Vector">
<path d="M4.99969 8.49942H0.999694C0.662194 8.49942 0.238394 8.73888 -0.000306129 8.49942C-0.239006 8.25995 -0.000306129 7.83808 -0.000306129 7.49942V6.49942C-0.000506401 6.33255 -0.0635061 5.65377 -0.000306129 5.49942L1.99969 0.499419C2.04769 0.382437 1.89479 0.569849 1.99969 0.499419C2.10449 0.42909 2.87359 0.499419 2.99969 0.499419H12.9997C13.1685 0.499419 13.8804 0.379728 13.9997 0.499419C14.119 0.619211 13.9997 1.33007 13.9997 1.49942V7.49942C14.119 7.37969 13.9997 7.66875 13.9997 7.49942C13.8804 7.61915 13.1685 8.49942 12.9997 8.49942H10.9997C11.0902 8.45243 10.8978 8.49939 10.9997 8.49942C11.0585 8.41594 10.9092 8.54641 10.9997 8.49942L6.99969 13.4994C7.07347 13.4808 6.95582 13.5618 6.99969 13.4994C7.06775 13.5335 6.9259 13.518 6.99969 13.4994L5.99969 12.4994C5.67483 12.3365 5.15076 12.8308 4.99969 12.4994C4.84862 12.1681 4.91009 11.8525 4.99969 11.4994V8.49942ZM9.99969 7.49942V1.49942H2.99969L0.999694 6.49942V7.49942H4.99969C5.19352 7.49945 5.82558 7.41394 5.99969 7.49942C6.1738 7.5849 5.88072 8.34589 5.99969 8.49942C6.11866 8.65296 6.96006 8.30905 6.99969 8.49942C7.03931 8.68978 7.04747 9.31094 6.99969 9.49942L5.99969 11.4994C5.98171 11.5701 5.96947 11.4331 5.99969 11.4994C6.02991 11.5657 5.93467 11.4668 5.99969 11.4994H6.99969L9.99969 7.49942C9.76869 7.63605 10.1588 7.27341 9.99969 7.49942ZM10.9997 6.49942H12.9997V1.49942H10.9997V6.49942Z" fill="#898989"/>
</g>
</g>
<defs>
<clipPath id="clip0_243_1477">
<rect width="14" height="13" fill="white" transform="matrix(-1 0 0 -1 14 13.5)"/>
</clipPath>
</defs>
</svg>
